<svg width="259" height="259" viewBox="0 0 259 259" fill="none" xmlns="http://www.w3.org/2000/svg">
<path d="M122.022 55.3074C121.846 55.4391 121.715 60.7965 121.715 67.1639V78.713H98.4682H75.2218V90.3499V101.987H63.5986H51.9754V113.843V125.7H42.1067H32.2818L31.9309 127.325C31.7555 128.247 31.6239 132.375 31.6239 136.502L31.58 144.011L29.694 143.616C24.4745 142.65 20.22 140.762 17.3251 138.171L15.5707 136.59V138.127C15.5707 141.464 11.7548 144.099 4.07909 146.075L0 147.129L16.1409 147.173C28.6413 147.217 32.2818 147.349 32.4134 147.744C32.5011 148.051 32.9836 150.159 33.5099 152.443C36.0977 163.64 41.5804 173.301 50.4403 182.128C55.6598 187.31 60.967 191.042 67.9848 194.423C83.3362 201.889 99.8279 204.172 122.592 202.064C160.751 198.551 192.243 180.854 211.498 152.179L214.788 147.217H236.587L258.342 147.173L254.351 146.163C248.824 144.714 246.105 143.441 244.307 141.464C243.166 140.191 242.771 139.357 242.771 138.171V136.59L240.929 138.215C238.341 140.411 233.561 142.65 229.525 143.441C226.28 144.099 216.893 144.451 216.893 143.88C216.893 143.748 217.946 141.508 219.218 138.961C220.49 136.371 222.069 133.077 222.683 131.584L223.823 128.905L229.262 128.642C239.438 128.159 246.719 125.348 252.421 119.596C255.403 116.61 259 111.077 259 109.54C259 108.705 253.649 106.027 249.57 104.797C246.149 103.787 244.877 103.655 239.92 103.655C236.455 103.655 233.254 103.919 231.718 104.314L229.218 104.929L228.78 102.865C227.113 95.0486 221.937 87.276 214.437 81.3038L211.674 79.1082L210.226 80.733C206.718 84.729 204.963 88.4616 203.954 94.346C202.507 102.645 203.779 110.989 207.419 117.005L208.911 119.552L205.796 121.045C202.726 122.494 198.866 123.768 194.305 124.821C193.121 125.085 187.813 125.436 182.594 125.568L173.032 125.788V113.887V101.987H161.409H149.786V78.4934V55H136.057C128.469 55 122.153 55.1317 122.022 55.3074ZM145.838 69.0521V79.1521H135.75H125.662V69.0521V58.9522H135.75H145.838V69.0521ZM122.592 92.326V102.426H112.504H102.416V92.326V82.226H112.504H122.592V92.326ZM99.3455 92.5455V102.426H89.2574H79.1694V92.5455V82.6651H89.2574H99.3455V92.5455ZM145.838 92.5455V102.426H135.75H125.662V92.5455V82.6651H135.75H145.838V92.5455ZM220.49 93.336C223.78 98.1225 225.227 102.514 225.271 107.564C225.315 109.057 225.359 110.33 225.49 110.33C225.578 110.33 227.157 109.847 228.999 109.232C235.885 106.993 243.649 106.905 250.052 109.013C254.351 110.462 254.482 110.638 252.859 113.053C250.973 115.907 246.982 119.508 243.78 121.221C239.526 123.46 235.14 124.426 227.683 124.778L221.192 125.041L218.867 130.398C216.718 135.361 213.253 142.255 212.595 142.87C211.893 143.528 204.744 140.981 202.331 139.225C201.674 138.786 201.366 138.874 200.358 139.84C198.603 141.552 194.743 143.133 190.313 143.924C185.796 144.802 175.094 144.89 169.523 144.143C161.234 143.045 153.602 140.454 152.154 138.215L151.453 137.117L149.61 138.698C147.417 140.586 143.557 142.474 139.698 143.572C137.461 144.187 135.224 144.363 129.171 144.363C122.46 144.363 121.057 144.231 117.986 143.353C113.907 142.167 110.004 140.191 108.337 138.434L107.153 137.205L105.661 138.654C102.109 142.255 90.7926 144.67 78.0728 144.626C67.9848 144.582 60.7915 142.87 57.6774 139.752C56.8002 138.874 56.8002 138.874 54.4755 140.147C50.6158 142.299 42.7207 144.143 37.2381 144.143H35.8784L35.5714 139.971C35.3959 137.688 35.3959 134.395 35.5714 132.726L35.8784 129.652H111.363C163.47 129.652 188.077 129.52 190.796 129.169C198.954 128.159 207.946 124.997 212.858 121.352L214.744 119.947L212.946 117.971C206.937 111.428 205.402 97.7272 209.7 88.3738C211.718 83.9386 211.762 83.9386 215.49 87.5834C217.244 89.3399 219.525 91.9307 220.49 93.336ZM99.3455 115.819V126.139H89.2574H79.1694V115.819V105.5H89.2574H99.3455V115.819ZM145.838 115.819V126.139H135.75H125.662V115.819V105.5H135.75H145.838V115.819ZM76.0991 115.819V125.7H66.011H55.9229V115.819V105.939H66.011H76.0991V115.819ZM122.592 115.819V125.7H112.504H102.416V115.819V105.939H112.504H122.592V115.819ZM169.085 115.819V125.7H159.216H149.347V115.819V105.939H159.216H169.085V115.819ZM101.1 159.293C102.811 160.171 103.732 162.06 103.732 164.563C103.732 170.14 96.1875 172.072 93.1611 167.285C92.5031 166.231 92.3277 165.353 92.4593 163.728C92.6347 161.884 92.8979 161.313 94.2576 160.084C95.5296 158.898 96.1875 158.634 97.8103 158.634C98.9069 158.634 100.398 158.942 101.1 159.293ZM88.424 175.409C93.0733 184.631 101.232 192.755 110.662 197.453C111.89 198.112 112.942 198.727 112.942 198.903C112.942 199.386 95.6611 198.639 91.2312 197.936C78.7746 196.004 67.283 191.218 58.5985 184.455C55.1773 181.777 49.7824 176.99 49.7824 176.639C49.7824 176.507 54.7826 176.419 60.8793 176.375C71.9323 176.375 78.336 175.76 84.4327 174.267C85.7485 173.916 86.9766 173.653 87.1521 173.609C87.3275 173.565 87.8977 174.399 88.424 175.409Z" fill="white"/>
<path d="M127.504 69.1399C127.636 76.3416 127.724 77.6151 128.294 77.6151C128.864 77.6151 128.952 76.3856 128.952 69.2717C128.952 61.6308 128.864 60.9282 128.162 60.7965C127.46 60.6647 127.417 61.1917 127.504 69.1399Z" fill="white"/>
<path d="M130.487 69.2717C130.487 77.2639 130.531 77.8787 131.276 77.7469C131.934 77.6152 132.022 76.8687 132.022 69.2717C132.022 61.6748 131.934 60.9283 131.276 60.7965C130.531 60.6648 130.487 61.2796 130.487 69.2717Z" fill="white"/>
<path d="M133.557 69.2717C133.557 77.2639 133.601 77.8787 134.347 77.7469C135.005 77.6152 135.092 76.8687 135.092 69.2717C135.092 61.6748 135.005 60.9283 134.347 60.7965C133.601 60.6648 133.557 61.2796 133.557 69.2717Z" fill="white"/>
<path d="M136.627 69.2717C136.627 77.2639 136.671 77.8787 137.417 77.7469C138.075 77.6152 138.163 76.8687 138.163 69.2717C138.163 61.6748 138.075 60.9283 137.417 60.7965C136.671 60.6648 136.627 61.2796 136.627 69.2717Z" fill="white"/>
<path d="M139.698 69.2717C139.698 77.2639 139.742 77.8787 140.487 77.7469C141.145 77.6152 141.233 76.8687 141.233 69.2717C141.233 61.6748 141.145 60.9283 140.487 60.7965C139.742 60.6648 139.698 61.2796 139.698 69.2717Z" fill="white"/>
<path d="M142.768 69.2717C142.768 76.6052 142.856 77.8347 143.426 77.8347C143.996 77.8347 144.084 76.6052 144.084 69.2717C144.084 61.9382 143.996 60.7087 143.426 60.7087C142.856 60.7087 142.768 61.9382 142.768 69.2717Z" fill="white"/>
<path d="M104.17 92.5454C104.17 100.538 104.214 101.152 104.96 101.021C105.618 100.889 105.705 100.142 105.705 92.5454C105.705 84.9485 105.618 84.202 104.96 84.0702C104.214 83.9385 104.17 84.5533 104.17 92.5454Z" fill="white"/>
<path d="M107.24 92.5454C107.24 100.538 107.284 101.152 108.03 101.021C108.688 100.889 108.776 100.142 108.776 92.5454C108.776 84.9485 108.688 84.202 108.03 84.0702C107.284 83.9385 107.24 84.5533 107.24 92.5454Z" fill="white"/>
<path d="M110.311 92.5454C110.311 100.538 110.355 101.152 111.1 101.021C111.758 100.889 111.846 100.142 111.846 92.5454C111.846 84.9485 111.758 84.202 111.1 84.0702C110.355 83.9385 110.311 84.5533 110.311 92.5454Z" fill="white"/>
<path d="M113.381 92.5454C113.381 100.538 113.425 101.152 114.171 101.021C114.828 100.889 114.916 100.142 114.916 92.5454C114.916 84.9485 114.828 84.202 114.171 84.0702C113.425 83.9385 113.381 84.5533 113.381 92.5454Z" fill="white"/>
<path d="M116.451 92.5454C116.451 100.538 116.495 101.152 117.241 101.021C117.899 100.889 117.986 100.142 117.986 92.5454C117.986 84.9485 117.899 84.202 117.241 84.0702C116.495 83.9385 116.451 84.5533 116.451 92.5454Z" fill="white"/>
<path d="M119.522 92.5456C119.522 99.8791 119.609 101.109 120.18 101.109C120.75 101.109 120.837 99.8791 120.837 92.5456C120.837 85.2122 120.75 83.9826 120.18 83.9826C119.609 83.9826 119.522 85.2122 119.522 92.5456Z" fill="white"/>
<path d="M80.9238 92.5456C80.9238 100.801 80.9676 101.109 81.801 101.109C82.6343 101.109 82.6782 100.801 82.6782 92.5456C82.6782 84.29 82.6343 83.9826 81.801 83.9826C80.9676 83.9826 80.9238 84.29 80.9238 92.5456Z" fill="white"/>
<path d="M83.6432 92.4138C83.7748 100.845 83.7748 100.889 84.7836 101.021L85.7485 101.152V92.5894V83.9825H84.652H83.5555L83.6432 92.4138Z" fill="white"/>
<path d="M86.7135 92.4137C86.845 100.538 86.8889 100.889 87.7223 100.889C88.5556 100.889 88.5995 100.538 88.7311 92.4137L88.8188 83.9824H87.7223H86.6257L86.7135 92.4137Z" fill="white"/>
<path d="M89.7838 92.4137C89.9153 100.538 89.9592 100.889 90.7926 100.889C91.6259 100.889 91.6698 100.538 91.8014 92.4137L91.8891 83.9824H90.7926H89.696L89.7838 92.4137Z" fill="white"/>
<path d="M92.854 92.4137C92.9855 100.538 93.0294 100.889 93.8628 100.889C94.6961 100.889 94.74 100.538 94.8716 92.4137L94.9593 83.9824H93.8628H92.7662L92.854 92.4137Z" fill="white"/>
<path d="M95.9243 92.4137C96.0559 100.055 96.1436 100.889 96.8454 101.021C97.5472 101.152 97.591 100.538 97.591 92.5893C97.591 84.2459 97.5472 83.9824 96.7138 83.9824C95.8366 83.9824 95.8366 84.202 95.9243 92.4137Z" fill="white"/>
<path d="M127.417 92.5456C127.417 100.801 127.46 101.109 128.294 101.109C129.127 101.109 129.171 100.801 129.171 92.5456C129.171 84.29 129.127 83.9826 128.294 83.9826C127.46 83.9826 127.417 84.29 127.417 92.5456Z" fill="white"/>
<path d="M130.487 92.5456C130.487 100.801 130.531 101.109 131.364 101.109C132.197 101.109 132.241 100.801 132.241 92.5456C132.241 84.29 132.197 83.9826 131.364 83.9826C130.531 83.9826 130.487 84.29 130.487 92.5456Z" fill="white"/>
<path d="M133.557 92.5456C133.557 100.801 133.601 101.109 134.434 101.109C135.268 101.109 135.312 100.801 135.312 92.5456C135.312 84.29 135.268 83.9826 134.434 83.9826C133.601 83.9826 133.557 84.29 133.557 92.5456Z" fill="white"/>
<path d="M136.627 92.5456C136.627 100.801 136.671 101.109 137.505 101.109C138.338 101.109 138.382 100.801 138.382 92.5456C138.382 84.29 138.338 83.9826 137.505 83.9826C136.671 83.9826 136.627 84.29 136.627 92.5456Z" fill="white"/>
<path d="M139.698 92.5456C139.698 100.801 139.742 101.109 140.575 101.109C141.408 101.109 141.452 100.801 141.452 92.5456C141.452 84.29 141.408 83.9826 140.575 83.9826C139.742 83.9826 139.698 84.29 139.698 92.5456Z" fill="white"/>
<path d="M142.768 92.5893C142.768 100.538 142.812 101.152 143.557 101.021C144.215 100.889 144.303 100.055 144.435 92.4137C144.522 84.202 144.522 83.9824 143.645 83.9824C142.812 83.9824 142.768 84.2459 142.768 92.5893Z" fill="white"/>
<path d="M80.9238 115.819C80.9238 123.811 80.9676 124.426 81.7133 124.295C82.3712 124.163 82.4589 123.416 82.4589 115.819C82.4589 108.222 82.3712 107.476 81.7133 107.344C80.9676 107.212 80.9238 107.827 80.9238 115.819Z" fill="white"/>
<path d="M83.9941 115.819C83.9941 123.811 84.0379 124.426 84.7836 124.295C85.4415 124.163 85.5292 123.416 85.5292 115.819C85.5292 108.222 85.4415 107.476 84.7836 107.344C84.0379 107.212 83.9941 107.827 83.9941 115.819Z" fill="white"/>
<path d="M87.0644 115.819C87.0644 123.153 87.1521 124.382 87.7223 124.382C88.2925 124.382 88.3802 123.153 88.3802 115.819C88.3802 108.486 88.2925 107.256 87.7223 107.256C87.1521 107.256 87.0644 108.486 87.0644 115.819Z" fill="white"/>
<path d="M90.1346 115.819C90.1346 123.153 90.2224 124.382 90.7926 124.382C91.3628 124.382 91.4505 123.153 91.4505 115.819C91.4505 108.486 91.3628 107.256 90.7926 107.256C90.2224 107.256 90.1346 108.486 90.1346 115.819Z" fill="white"/>
<path d="M93.2049 115.819C93.2049 123.153 93.2926 124.382 93.8628 124.382C94.433 124.382 94.5207 123.153 94.5207 115.819C94.5207 108.486 94.433 107.256 93.8628 107.256C93.2926 107.256 93.2049 108.486 93.2049 115.819Z" fill="white"/>
<path d="M96.2751 115.819C96.2751 123.153 96.3629 124.382 96.9331 124.382C97.5033 124.382 97.591 123.153 97.591 115.819C97.591 108.486 97.5033 107.256 96.9331 107.256C96.3629 107.256 96.2751 108.486 96.2751 115.819Z" fill="white"/>
<path d="M127.636 107.783C127.504 108.135 127.461 111.955 127.504 116.259C127.636 122.933 127.724 124.163 128.294 124.163C128.864 124.163 128.952 122.933 128.952 115.863C128.952 109.584 128.82 107.52 128.425 107.388C128.118 107.256 127.768 107.432 127.636 107.783Z" fill="white"/>
<path d="M130.487 115.819C130.487 123.811 130.531 124.426 131.276 124.295C131.934 124.163 132.022 123.416 132.022 115.819C132.022 108.222 131.934 107.476 131.276 107.344C130.531 107.212 130.487 107.827 130.487 115.819Z" fill="white"/>
<path d="M133.557 115.819C133.557 123.811 133.601 124.426 134.347 124.295C135.005 124.163 135.092 123.416 135.092 115.819C135.092 108.222 135.005 107.476 134.347 107.344C133.601 107.212 133.557 107.827 133.557 115.819Z" fill="white"/>
<path d="M136.627 115.819C136.627 123.811 136.671 124.426 137.417 124.295C138.075 124.163 138.163 123.416 138.163 115.819C138.163 108.222 138.075 107.476 137.417 107.344C136.671 107.212 136.627 107.827 136.627 115.819Z" fill="white"/>
<path d="M139.698 115.819C139.698 123.811 139.742 124.426 140.487 124.295C141.145 124.163 141.233 123.416 141.233 115.819C141.233 108.222 141.145 107.476 140.487 107.344C139.742 107.212 139.698 107.827 139.698 115.819Z" fill="white"/>
<path d="M142.768 115.819C142.768 123.153 142.856 124.382 143.426 124.382C143.996 124.382 144.084 123.153 144.084 115.819C144.084 108.486 143.996 107.256 143.426 107.256C142.856 107.256 142.768 108.486 142.768 115.819Z" fill="white"/>
<path d="M57.6774 115.819C57.6774 123.811 57.7212 124.426 58.4669 124.295C59.1248 124.163 59.2125 123.416 59.2125 115.819C59.2125 108.222 59.1248 107.476 58.4669 107.344C57.7212 107.212 57.6774 107.827 57.6774 115.819Z" fill="white"/>
<path d="M60.5283 107.783C60.3968 108.135 60.3529 111.955 60.3968 116.259C60.5283 123.812 60.5722 124.163 61.4056 124.163C62.2389 124.163 62.2828 123.855 62.2828 115.819C62.2828 108.222 62.195 107.476 61.4933 107.344C61.0985 107.256 60.6599 107.476 60.5283 107.783Z" fill="white"/>
<path d="M63.5987 107.783C63.4671 108.135 63.4233 111.955 63.4671 116.259C63.5987 123.812 63.6426 124.163 64.4759 124.163C65.3093 124.163 65.3532 123.855 65.3532 115.819C65.3532 108.222 65.2654 107.476 64.5637 107.344C64.1689 107.256 63.7303 107.476 63.5987 107.783Z" fill="white"/>
<path d="M66.6689 107.783C66.5373 108.135 66.4935 111.955 66.5373 116.259C66.6689 123.812 66.7128 124.163 67.5461 124.163C68.3795 124.163 68.4234 123.855 68.4234 115.819C68.4234 108.222 68.3356 107.476 67.6339 107.344C67.2391 107.256 66.8005 107.476 66.6689 107.783Z" fill="white"/>
<path d="M69.7392 107.783C69.6076 108.135 69.5638 111.955 69.6076 116.259C69.7392 123.812 69.7831 124.163 70.6164 124.163C71.4498 124.163 71.4937 123.855 71.4937 115.819C71.4937 108.222 71.4059 107.476 70.7042 107.344C70.3094 107.256 69.8708 107.476 69.7392 107.783Z" fill="white"/>
<path d="M72.7656 107.827C72.6779 108.135 72.6341 111.911 72.6779 116.258C72.8095 123.372 72.8972 124.163 73.599 124.295C74.3008 124.426 74.3446 123.811 74.3446 115.863C74.3446 108.442 74.2569 107.256 73.6867 107.256C73.292 107.256 72.8972 107.52 72.7656 107.827Z" fill="white"/>
<path d="M104.17 115.819C104.17 124.075 104.214 124.382 105.047 124.382C105.881 124.382 105.925 124.075 105.925 115.819C105.925 107.564 105.881 107.256 105.047 107.256C104.214 107.256 104.17 107.564 104.17 115.819Z" fill="white"/>
<path d="M107.24 115.819C107.24 124.075 107.284 124.382 108.118 124.382C108.951 124.382 108.995 124.075 108.995 115.819C108.995 107.564 108.951 107.256 108.118 107.256C107.284 107.256 107.24 107.564 107.24 115.819Z" fill="white"/>
<path d="M110.311 115.819C110.311 124.075 110.355 124.382 111.188 124.382C112.021 124.382 112.065 124.075 112.065 115.819C112.065 107.564 112.021 107.256 111.188 107.256C110.355 107.256 110.311 107.564 110.311 115.819Z" fill="white"/>
<path d="M113.381 115.819C113.381 124.075 113.425 124.382 114.258 124.382C115.092 124.382 115.135 124.075 115.135 115.819C115.135 107.564 115.092 107.256 114.258 107.256C113.425 107.256 113.381 107.564 113.381 115.819Z" fill="white"/>
<path d="M116.188 107.827C116.1 108.135 116.057 111.955 116.1 116.258C116.232 124.075 116.232 124.163 117.241 124.295L118.206 124.426V115.863C118.206 107.52 118.162 107.256 117.329 107.256C116.846 107.256 116.32 107.52 116.188 107.827Z" fill="white"/>
<path d="M119.302 107.783C119.171 108.135 119.127 111.955 119.171 116.259C119.302 123.812 119.346 124.163 120.18 124.163C121.013 124.163 121.057 123.855 121.057 115.819C121.057 108.222 120.969 107.476 120.267 107.344C119.872 107.256 119.434 107.476 119.302 107.783Z" fill="white"/>
<path d="M150.663 115.819C150.663 124.075 150.707 124.382 151.54 124.382C152.374 124.382 152.417 124.075 152.417 115.819C152.417 107.564 152.374 107.256 151.54 107.256C150.707 107.256 150.663 107.564 150.663 115.819Z" fill="white"/>
<path d="M153.733 115.819C153.733 124.075 153.777 124.382 154.611 124.382C155.444 124.382 155.488 124.075 155.488 115.819C155.488 107.564 155.444 107.256 154.611 107.256C153.777 107.256 153.733 107.564 153.733 115.819Z" fill="white"/>
<path d="M156.804 115.819C156.804 124.075 156.847 124.382 157.681 124.382C158.514 124.382 158.558 124.075 158.558 115.819C158.558 107.564 158.514 107.256 157.681 107.256C156.847 107.256 156.804 107.564 156.804 115.819Z" fill="white"/>
<path d="M159.874 115.819C159.874 124.075 159.918 124.382 160.751 124.382C161.584 124.382 161.628 124.075 161.628 115.819C161.628 107.564 161.584 107.256 160.751 107.256C159.918 107.256 159.874 107.564 159.874 115.819Z" fill="white"/>
<path d="M162.944 115.819C162.944 124.075 162.988 124.382 163.821 124.382C164.655 124.382 164.699 124.075 164.699 115.819C164.699 107.564 164.655 107.256 163.821 107.256C162.988 107.256 162.944 107.564 162.944 115.819Z" fill="white"/>
<path d="M166.014 115.819C166.014 124.075 166.058 124.382 166.892 124.382C167.725 124.382 167.769 124.075 167.769 115.819C167.769 107.564 167.725 107.256 166.892 107.256C166.058 107.256 166.014 107.564 166.014 115.819Z" fill="white"/>
<path d="M95.1787 161.796C93.0734 164.299 94.3892 167.593 97.7227 168.164C99.0823 168.383 99.4771 168.207 100.661 167.066C101.539 166.187 101.977 165.309 101.977 164.431C101.977 163.245 101.846 163.114 100.574 163.201C99.2139 163.245 99.1262 163.158 99.1262 161.796C99.1262 160.523 99.0385 160.391 97.7227 160.391C96.7138 160.391 96.0559 160.742 95.1787 161.796Z" fill="white"/>
</svg>
