<svg width="1200" height="1200" viewBox="0 0 1200 1200" fill="none" xmlns="http://www.w3.org/2000/svg">
<path d="M586.8 33.0001C575.4 35.0001 564 40.1001 554.5 47.3001C551.2 49.8001 525.1 75.3001 496.5 103.9L444.5 156L509.7 221.1L574.8 286.3L581.6 284.5C585.4 283.5 593.2 282.5 599 282.3C623.2 281.1 644.9 289.2 662.3 305.9C674.5 317.6 681.6 329.2 686.7 345.7C689 353.5 689.3 356.1 689.3 369C689.3 380.3 688.9 385.1 687.3 390.7L685.4 397.9L748.1 460.6L810.8 523.3L817.2 521.4C822.3 519.9 826.6 519.5 840 519.5C855.8 519.6 856.9 519.7 866 522.8C889 530.5 908.2 547.4 918.5 569.1C924.3 581.5 926.2 590.5 926.2 606C926.2 621.4 924.5 629.7 918.6 642.5C908.9 663.5 889.1 681.5 868 688.5C857.1 692.1 850.8 693.1 838.5 693.1C779.8 693.1 738 635.1 756.2 579.1L758.2 572.7L700.1 514.6L642 456.5V610.5V764.5L649.1 768.9C667.3 780.1 680.1 797.1 686.6 818.7C689 826.4 689.3 829.3 689.4 842C689.5 858.7 688.1 865.4 682 878.6C676.7 890 671.5 897.3 662.3 906.1C651.1 916.7 639.3 923.4 624 927.6C614.7 930.2 591.2 930.2 581.5 927.6C556 920.9 534.6 903.2 523.5 879.7C507.8 846.7 514.8 807 540.9 780.9C547.5 774.3 558.9 766.2 565.5 763.4L569 762V606V450L565.5 448.6C548.5 441.5 528.7 420.7 521.8 402.8C513.8 382.2 513.2 358.8 520 340.8L522 335.5L457.8 271.3L393.5 207L222.7 377.7C128.7 471.7 49.8 551.2 47.3 554.5C36.7 568.4 31.3 585.9 32.3 603C33.3 619.2 38.4 632.2 48.9 645.1C58.5 657 553.6 1151 560.3 1155.4C574 1164.3 584.7 1167.5 601.5 1167.5C611.2 1167.5 614.9 1167 621 1165.1C629.2 1162.6 636.1 1159.3 643 1154.7C648.8 1150.9 1146.6 653.5 1152.7 645.5C1158.4 638 1162.2 630.5 1165.1 621C1168.1 611.4 1168.4 593 1165.7 583C1162.8 572 1156.8 561.3 1148.2 551.5C1140.8 543.2 918.2 320.6 721.5 124.9L640.5 44.3001L632 40.1001C627.3 37.9001 620.8 35.3001 617.5 34.4001C610.4 32.6001 593.4 31.8001 586.8 33.0001Z" fill="white"/>
</svg>
