<svg width="795" height="826" viewBox="0 0 795 826" fill="none" xmlns="http://www.w3.org/2000/svg">
<path fill-rule="evenodd" clip-rule="evenodd" d="M789.053 183.689C789.346 184.771 789.496 185.887 789.499 187.009V361.295C789.499 363.532 788.908 365.729 787.785 367.665C786.663 369.6 785.049 371.206 783.107 372.319L636.684 456.539V623.47C636.684 628.013 634.267 632.207 630.324 634.494L324.678 810.273C323.978 810.67 323.215 810.925 322.452 811.195C322.166 811.29 321.896 811.465 321.593 811.544C319.457 812.106 317.211 812.106 315.074 811.544C314.725 811.449 314.407 811.258 314.073 811.131C313.373 810.877 312.642 810.655 311.974 810.273L6.3918 634.494C4.45053 633.38 2.83752 631.774 1.71536 629.839C0.593204 627.904 0.00153816 625.707 0 623.47L0 100.612C0 99.4686 0.159 98.3567 0.4452 97.2765C0.5406 96.9112 0.7632 96.5776 0.8904 96.2122C1.1289 95.5451 1.3515 94.862 1.7013 94.2425C1.9398 93.8295 2.2896 93.496 2.5758 93.1147C2.9415 92.6064 3.2754 92.0822 3.7047 91.6375C4.0704 91.2721 4.5474 91.0021 4.9608 90.6844C5.4219 90.3032 5.8353 89.8901 6.36 89.5883H6.3759L159.175 1.69877C161.11 0.586536 163.303 0.00115967 165.535 0.00115967C167.767 0.00115967 169.96 0.586536 171.895 1.69877L324.694 89.5883H324.726C325.235 89.906 325.664 90.3032 326.125 90.6685C326.538 90.9862 326.999 91.2721 327.365 91.6216C327.81 92.0822 328.128 92.6064 328.51 93.1147C328.78 93.496 329.146 93.8295 329.369 94.2425C329.734 94.8779 329.941 95.5451 330.195 96.2122C330.323 96.5776 330.545 96.9112 330.641 97.2924C330.933 98.3749 331.083 99.491 331.086 100.612V427.184L458.413 353.94V186.993C458.413 185.881 458.572 184.753 458.858 183.689C458.969 183.308 459.176 182.974 459.303 182.609C459.558 181.941 459.78 181.258 460.13 180.639C460.369 180.226 460.718 179.892 460.989 179.511C461.37 179.003 461.688 178.479 462.134 178.034C462.499 177.669 462.96 177.398 463.374 177.081C463.851 176.7 464.264 176.287 464.773 175.985H464.789L617.604 88.0952C619.538 86.9814 621.731 86.3951 623.964 86.3951C626.196 86.3951 628.39 86.9814 630.324 88.0952L783.123 175.985C783.663 176.302 784.077 176.7 784.554 177.065C784.951 177.383 785.412 177.669 785.778 178.018C786.223 178.479 786.541 179.003 786.923 179.511C787.209 179.892 787.559 180.226 787.781 180.639C788.147 181.258 788.354 181.941 788.608 182.609C788.751 182.974 788.958 183.308 789.053 183.689V183.689ZM764.027 353.94V209.009L710.555 239.761L636.684 282.253V427.184L764.043 353.94H764.027ZM611.228 616.116V471.089L538.565 512.548L331.07 630.857V777.249L611.228 616.116ZM25.4718 122.612V616.116L305.598 777.233V630.872L159.254 548.13L159.207 548.098L159.143 548.066C158.65 547.78 158.237 547.367 157.776 547.018C157.378 546.7 156.917 546.446 156.567 546.096L156.536 546.049C156.122 545.651 155.836 545.159 155.486 544.714C155.168 544.285 154.787 543.92 154.532 543.475L154.516 543.428C154.23 542.951 154.055 542.379 153.848 541.839C153.642 541.363 153.371 540.918 153.244 540.41V540.394C153.085 539.79 153.053 539.155 152.99 538.535C152.926 538.059 152.799 537.582 152.799 537.106V537.074V195.856L78.9435 153.349L25.4718 122.628V122.612ZM165.551 27.4001L38.2395 100.612L165.519 173.824L292.814 100.596L165.519 27.4001H165.551ZM231.758 484.305L305.614 441.83V122.612L252.142 153.365L178.271 195.856V515.074L231.758 484.305ZM623.964 113.796L496.668 187.009L623.964 260.221L751.243 186.993L623.964 113.796V113.796ZM611.228 282.253L537.356 239.761L483.885 209.009V353.94L557.74 396.416L611.228 427.184V282.253ZM318.318 608.856L505.032 502.366L598.365 449.152L471.165 375.988L324.71 460.224L191.229 536.994L318.318 608.856V608.856Z" fill="white"/>
</svg>
