<svg width="667" height="667" viewBox="0 0 667 667" fill="none" xmlns="http://www.w3.org/2000/svg">
<g clip-path="url(#clip0)">
<path d="M329.082 59.659L329.091 59.6536C331.015 58.5456 333.121 58.0001 335.301 58.0001V43.0001L335.336 58C337.501 57.995 339.629 58.5627 341.504 59.6456L341.515 59.6523L341.527 59.659L569.417 190.738C569.419 190.739 569.42 190.739 569.421 190.74C573.032 192.822 575.603 197.168 575.603 201.945V465.02V465.036L575.603 465.051C575.607 467.225 575.038 469.362 573.952 471.245C572.866 473.128 571.302 474.691 569.418 475.776L569.406 475.783L341.508 607.317L341.489 607.328L341.471 607.339C339.598 608.427 337.47 609 335.305 609C333.139 609 331.011 608.427 329.138 607.339L329.12 607.328L329.101 607.317L101.213 475.789C97.3301 473.543 95 469.503 95 465.02V201.945C95 197.178 97.5722 192.824 101.183 190.743C101.185 190.742 101.186 190.741 101.187 190.741L329.082 59.659ZM1663.81 314.012L1697.91 294.119L1732 314.011V352.905L1697.9 372.444L1663.81 352.91V314.012Z" stroke="white" stroke-width="30"/>
<path d="M333.998 185C329.987 185 326.086 185.829 322.633 187.783L213.369 250.882C206.298 254.957 202 262.65 202 270.837V396.806C202 404.985 206.298 412.669 213.369 416.754L241.904 433.227C255.768 440.059 260.878 439.953 267.188 439.953C287.714 439.953 299.434 427.497 299.434 405.853V281.506C299.434 279.748 297.912 278.491 296.187 278.491H282.5C280.746 278.491 279.254 279.748 279.254 281.506V405.853C279.254 415.445 269.258 425.095 253.04 416.986L223.345 399.588C222.294 399.017 221.488 398.008 221.488 396.806V270.833C221.488 269.64 222.284 268.425 223.345 267.819L332.377 204.955C332.869 204.667 333.43 204.515 334 204.515C334.571 204.515 335.131 204.667 335.623 204.955L444.659 267.822C445.697 268.447 446.516 269.605 446.516 270.84V396.809C446.516 398.011 445.91 399.243 444.891 399.823L335.623 462.69C334.688 463.248 333.399 463.248 332.377 462.69L304.306 445.989C303.879 445.757 303.401 445.635 302.915 445.635C302.429 445.635 301.951 445.757 301.524 445.989C293.776 450.38 292.318 450.889 285.051 453.411C283.261 454.036 280.543 455.007 285.979 458.054L322.633 479.624C326.089 481.618 330.012 482.659 334.002 482.642C337.991 482.667 341.915 481.626 345.367 479.627L454.634 416.757C461.705 412.646 466 404.989 466 396.809V270.837C466 262.653 461.705 254.973 454.634 250.888L345.367 187.789C341.943 185.832 338.016 185.003 334.002 185.003L333.998 185Z" fill="white"/>
<path d="M363.23 275.012C332.116 275.012 313.586 288.254 313.586 310.276C313.586 334.161 331.977 340.726 361.84 343.679C397.565 347.178 400.348 352.423 400.348 359.456C400.348 371.653 390.623 376.854 367.641 376.854C338.761 376.854 332.415 369.644 330.291 355.28C330.039 353.739 328.849 352.494 327.273 352.494H313.121C311.38 352.494 309.875 353.997 309.875 355.744C309.875 374.132 319.876 395.877 367.641 395.877C402.214 395.877 422.157 382.306 422.157 358.527C422.157 334.958 406.048 328.628 372.509 324.195C338.622 319.71 335.391 317.514 335.391 309.579C335.391 303.028 338.132 294.264 363.23 294.264C385.651 294.264 393.938 299.1 397.333 314.219C397.629 315.638 398.88 316.769 400.348 316.769H414.502C415.373 316.769 416.217 316.234 416.82 315.609C417.414 314.941 417.833 314.19 417.749 313.291C415.556 287.258 398.197 275.012 363.23 275.012V275.012Z" fill="white"/>
</g>
<defs>
<clipPath id="clip0">
<rect width="667" height="667" fill="white"/>
</clipPath>
</defs>
</svg>
