<svg width="638" height="638" viewBox="0 0 638 638" fill="none" xmlns="http://www.w3.org/2000/svg">
<path d="M411.211 101.432C406.476 101.93 394.763 103.426 385.043 105.17C375.573 106.666 351.897 108.161 332.707 108.161C300.059 108.41 296.82 108.909 284.359 115.139L271.15 121.619L257.942 117.133C226.042 106.167 181.93 104.423 156.509 113.395C118.877 126.603 98.6907 170.964 104.921 227.038C112.149 291.586 142.553 383.049 165.98 410.962C178.441 425.915 194.64 430.152 207.101 421.678C210.839 419.435 222.303 407.722 232.77 395.759C242.988 384.046 252.459 373.579 253.705 372.831C256.446 371.087 281.617 376.819 281.617 379.062C281.617 383.797 263.424 396.009 253.705 397.504C237.755 400.245 229.281 405.23 229.281 412.457C229.281 430.65 271.898 438.874 298.315 425.416L310.776 419.186L312.52 456.818C314.763 503.422 317.256 515.634 327.474 529.091C338.938 544.294 349.156 548.78 369.093 547.534C391.274 546.038 410.962 537.066 420.931 523.359C429.404 511.646 431.647 502.176 437.13 458.562C439.373 441.366 441.616 423.921 442.363 419.934L443.609 412.457H466.787C485.977 412.208 491.958 411.211 503.422 405.977C528.095 394.513 539.06 381.554 532.082 372.084C529.091 368.096 527.098 368.096 508.157 370.837C487.472 373.579 468.531 372.582 468.531 368.594C468.531 367.598 472.02 360.619 476.257 353.641C509.403 297.069 531.334 231.026 531.833 185.668C532.082 165.232 531.334 161.992 525.104 151.276C506.662 119.874 457.316 98.1922 411.211 101.432ZM454.824 117.631C477.254 123.114 501.179 138.815 512.892 155.512C519.123 164.484 519.621 167.226 519.372 186.665C518.873 221.555 503.422 274.639 480.743 319C464.045 351.897 452.831 366.601 461.304 344.669C466.288 331.461 467.784 313.517 465.541 292.084C464.045 277.131 464.295 262.178 466.288 244.234C469.03 220.808 468.781 216.571 465.042 204.858C455.572 176.696 426.663 141.307 400.495 125.855C393.766 122.117 389.28 118.13 390.526 116.884C395.261 112.148 434.887 112.647 454.824 117.631ZM243.985 125.606C251.213 127.6 257.692 129.843 258.44 130.341C258.938 131.089 254.951 138.067 249.219 146.042C243.736 154.017 236.259 169.469 232.521 180.434C226.789 198.877 226.042 206.104 224.048 259.187C222.802 291.337 222.552 320.994 223.549 325.23C225.294 334.701 233.518 351.149 239.749 357.878L244.484 363.112L225.294 385.292C214.577 397.504 204.11 408.719 202.117 410.463C180.684 427.161 151.276 376.569 128.597 283.611C113.145 220.559 112.149 188.659 124.609 160.248C133.083 140.809 144.796 130.591 168.223 122.865C180.684 118.877 225.045 120.373 243.985 125.606ZM367.099 124.609C386.788 130.84 409.716 145.793 424.17 161.743C435.385 174.453 449.341 196.634 452.332 206.104C453.827 211.587 453.329 211.836 439.871 211.836C402.488 211.836 390.526 235.013 405.23 278.377C411.46 297.318 437.379 348.906 445.852 359.373C450.338 364.607 450.338 364.856 442.363 372.582C433.142 381.055 433.89 377.816 426.413 443.859C420.432 495.696 418.438 504.169 410.463 516.132C398.75 533.328 362.863 541.303 346.414 530.337C328.969 518.375 324.234 495.198 323.984 420.681C323.984 385.043 323.735 384.046 317.505 376.569C314.016 372.333 309.281 368.844 307.038 368.844C296.072 368.594 295.823 365.355 305.044 342.427C318.003 311.025 320.745 292.334 317.006 262.677C312.271 225.792 305.542 216.571 281.617 214.827C268.159 213.83 259.188 215.574 240.745 223.3C236.509 225.045 236.259 224.297 237.755 212.833C241.742 185.917 252.708 159.5 266.913 143.55C270.901 138.815 281.368 131.338 289.592 127.102C303.299 120.373 307.287 119.625 327.972 119.625C343.922 119.625 355.884 121.12 367.099 124.609ZM454.326 239.748C452.332 256.197 452.083 267.661 453.578 305.293C454.575 326.726 452.831 338.937 448.843 338.937C446.351 338.937 416.943 279.623 413.952 267.91C405.728 237.256 413.703 224.546 441.865 224.297H456.32L454.326 239.748ZM293.331 230.527C301.306 236.01 304.795 251.711 305.044 281.617C305.293 307.037 305.044 308.782 294.327 335.698C284.109 361.616 282.614 363.859 276.633 363.859C264.92 363.859 247.973 350.651 240.745 335.947L234.266 322.489L236.01 280.371L238.004 238.004L251.711 232.521C267.661 226.041 285.605 225.294 293.331 230.527ZM311.025 391.024C313.766 408.719 281.119 424.918 255.449 418.438C241.742 414.949 242.988 413.205 262.427 407.722C274.141 404.233 279.374 400.993 288.595 391.024C299.063 379.809 300.309 379.062 305.044 382.302C308.034 384.046 310.527 388.034 311.025 391.024ZM470.276 382.551C481.491 385.292 488.967 385.791 500.93 384.295L516.88 382.052L510.151 387.784C498.188 398.002 461.553 404.98 447.597 399.747C442.613 397.753 442.613 391.523 447.597 384.295C452.083 377.816 451.834 377.816 470.276 382.551Z" fill="white"/>
<path d="M422.924 233.518C419.934 236.259 420.931 239.001 425.915 241.742C431.896 244.733 437.878 242.739 441.367 236.509C443.61 232.272 442.862 231.773 434.139 231.773C428.906 231.773 423.672 232.521 422.924 233.518Z" fill="white"/>
<path d="M271.648 239.25C271.648 249.219 289.592 252.209 293.33 242.739C295.324 237.505 290.091 234.266 279.873 234.266C273.393 234.266 271.648 235.262 271.648 239.25Z" fill="white"/>
</svg>
