<svg width="391" height="391" viewBox="0 0 391 391" fill="none" xmlns="http://www.w3.org/2000/svg">
<path d="M189.169 44.6922C176.31 48.2259 33.5887 103.391 24.3618 108.299C21.7116 109.771 18.9632 112.029 18.2761 113.403C17.3926 115.071 17 121.452 17 134.212V152.47L19.8466 155.414C24.0674 159.537 35.65 164.837 90.1276 187.512C117.121 198.702 148.237 211.757 159.329 216.469C182.985 226.579 185.144 227.266 194.273 227.266C203.402 227.266 208.702 225.597 228.138 216.469C237.07 212.248 266.714 199.193 293.903 187.512C351.424 162.776 365.755 156.003 370.761 151.39L374.295 148.052V127.93C374.295 105.845 374.491 106.63 367.816 103.292C364.381 101.526 231.671 49.8946 220.678 45.9683C211.058 42.5328 198.592 42.042 189.169 44.6922ZM190.445 65.9925L201.831 70.5078L213.021 66.8759C219.205 64.8146 224.506 63.3422 224.8 63.6367C224.997 63.9312 223.917 67.2685 222.346 71.1949L219.303 78.1641L221.463 78.9493C222.641 79.342 227.647 81.207 232.457 82.9738C237.364 84.7406 241.683 86.5075 242.076 86.9001C242.567 87.2927 236.972 88.1762 229.806 88.7651C222.641 89.4522 215.672 90.3356 214.395 90.7283C212.53 91.2191 211.254 93.1822 209.095 98.2864C207.524 102.016 205.954 105.452 205.463 105.845C205.07 106.335 202.42 102.9 199.574 98.1883C196.727 93.5749 194.077 89.6485 193.782 89.3541C193.39 89.1577 186.715 88.4706 178.96 87.8817C156.58 86.0167 156.58 86.1149 171.893 80.5199L184.85 75.8083L181.022 68.6428C178.862 64.6183 177.488 61.3791 177.979 61.3791C178.568 61.3791 184.065 63.4404 190.445 65.9925ZM304.406 101.329C317.461 106.532 327.866 111.145 327.473 111.538C326.099 112.716 276.137 132.053 274.37 132.053C272.407 132.053 226.174 114.09 226.076 113.305C226.076 112.617 277.02 92.0043 279.082 91.9062C279.867 91.808 291.253 96.127 304.406 101.329ZM148.532 99.6606C160.605 103.096 168.163 108.593 168.163 113.992C168.163 117.427 162.961 122.63 156.679 125.476C148.041 129.304 137.44 131.071 123.501 131.071C103.673 131.071 88.0663 126.752 81.7842 119.587C77.7597 115.071 77.956 112.029 82.5695 107.513C86.4958 103.587 94.1521 100.25 104.361 98.0901C114.176 96.0288 139.01 96.9122 148.532 99.6606ZM215.672 150.212C208.8 160.224 202.715 168.273 202.126 168.077C184.457 161.009 145.685 144.322 146.47 144.028C148.237 143.439 227.549 131.464 227.941 131.66C228.138 131.856 222.641 140.2 215.672 150.212Z" fill="white"/>
<path d="M369.976 177.794C363.89 183.095 358.688 185.451 270.247 223.634C252.186 231.487 231.18 240.713 223.622 244.345C200.752 255.045 192.997 255.928 177.586 249.45C134.299 231.29 103.772 218.53 77.3671 207.634C42.521 193.205 23.5766 184.469 20.141 181.23L17.9816 179.07V197.23V215.389L21.1226 217.745C27.5029 222.554 38.5947 227.364 120.557 261.425C142.74 270.652 164.826 279.977 169.635 282.136C179.648 286.553 188.384 289.105 193.782 289.105C199.966 289.105 211.549 285.473 223.622 279.78C237.659 273.106 258.174 264.075 294.787 248.37C355.056 222.554 366.54 217.156 371.644 211.855L374.295 208.91L374.098 191.733L373.804 174.457L369.976 177.794Z" fill="white"/>
<path d="M369.976 236.689C363.89 241.99 358.688 244.345 270.247 282.529C252.186 290.381 231.18 299.608 223.622 303.24C200.752 313.939 192.997 314.823 177.586 308.344C134.299 290.185 103.772 277.424 77.3671 266.529C42.521 252.1 23.5766 243.364 20.141 240.125L17.9816 237.965V256.026V274.185L21.2208 276.541C27.601 281.449 38.2021 286.161 120.557 320.319C142.74 329.546 164.826 338.871 169.635 341.031C179.648 345.448 188.384 348 193.782 348C199.966 348 211.549 344.368 223.622 338.675C237.659 332 258.174 322.97 294.787 307.264C355.056 281.449 366.54 276.05 371.644 270.75L374.295 267.805L374.098 250.627L373.804 233.352L369.976 236.689Z" fill="white"/>
</svg>
