<svg width="434" height="434" viewBox="0 0 434 434" fill="none" xmlns="http://www.w3.org/2000/svg">
<g clip-path="url(#clip0)">
<path d="M62.8195 43.2552H21.2968C41.1091 77.805 87.2408 157.475 130.904 232.667C155.812 275.559 179.895 316.958 197.795 347.63C204.329 358.826 210.035 368.586 214.654 376.465C219.274 368.586 224.98 358.826 231.514 347.63C249.414 316.958 273.497 275.559 298.405 232.667C342.068 157.475 388.2 77.805 408.012 43.2552H366.489H307.609L270.173 107.828C270.17 107.833 270.168 107.838 270.165 107.843C258.744 127.668 248.227 145.73 240.486 158.854C236.619 165.41 233.419 170.777 231.135 174.529C230.003 176.389 229.044 177.94 228.32 179.065C227.976 179.6 227.58 180.203 227.198 180.741C227.037 180.968 226.677 181.469 226.213 182.018C226.017 182.249 225.48 182.878 224.706 183.571C224.335 183.904 223.547 184.582 222.428 185.258C221.681 185.709 218.798 187.425 214.654 187.425C210.511 187.425 207.628 185.709 206.881 185.258C205.762 184.582 204.974 183.904 204.603 183.571C203.829 182.878 203.292 182.249 203.096 182.018C202.632 181.469 202.272 180.968 202.111 180.741C201.729 180.203 201.333 179.6 200.989 179.065C200.265 177.94 199.306 176.389 198.174 174.529C195.89 170.777 192.69 165.41 188.823 158.854C181.082 145.73 170.565 127.668 159.144 107.843C159.141 107.838 159.139 107.833 159.136 107.828L121.7 43.2552H62.8195Z" stroke="white" stroke-width="30"/>
</g>
<defs>
<clipPath id="clip0">
<rect width="434" height="434" fill="white"/>
</clipPath>
</defs>
</svg>
