<svg width="975" height="720" viewBox="0 0 975 720" fill="none" xmlns="http://www.w3.org/2000/svg">
<g clip-path="url(#clip0)">
<path d="M497.543 13.4468L234.44 155.958C238.939 163.703 241.838 172.273 242.964 181.159C244.09 190.045 243.422 199.067 240.997 207.69C238.573 216.313 234.442 224.362 228.85 231.359C223.258 238.356 216.319 244.16 208.442 248.426C200.566 252.692 191.914 255.334 182.998 256.195C174.082 257.056 165.085 256.119 156.538 253.438C147.991 250.758 140.069 246.389 133.241 240.591C126.414 234.793 120.82 227.684 116.79 219.684L27.0796 268.276L259.457 697.289L729.92 442.459L497.543 13.4468Z" fill="#F2F2F2"/>
<path opacity="0.2" d="M230.605 389.226L182.299 376.321L169.395 424.627L217.701 437.532L230.605 389.226Z" fill="#84B8E3"/>
<path d="M297.948 583.616C259.335 642.831 269.915 718.145 269.915 718.145C269.915 718.145 343.1 697.453 381.713 638.237C420.326 579.022 409.746 503.708 409.746 503.708C409.746 503.708 336.562 524.401 297.948 583.616Z" fill="#3F3D56"/>
<path d="M269.71 717.456C269.71 717.456 268.77 717.306 267.04 716.956C265.66 716.676 263.76 716.277 261.44 715.727C240.7 710.837 185.56 694.306 149.51 650.846C104.39 596.426 106.29 520.396 106.29 520.396C106.29 520.396 175.28 531.607 220.74 580.477C222.71 582.577 224.627 584.753 226.49 587.006C265.75 634.356 269.41 698.067 269.7 713.817C269.74 716.177 269.71 717.456 269.71 717.456Z" fill="#84B8E3"/>
<path d="M241.882 583.616C280.495 642.831 269.915 718.145 269.915 718.145C269.915 718.145 196.731 697.453 158.118 638.237C119.504 579.022 130.084 503.708 130.084 503.708C130.084 503.708 203.269 524.401 241.882 583.616Z" stroke="#3F3D56" stroke-width="2" stroke-miterlimit="10"/>
<path opacity="0.1" d="M269.7 713.817C268.68 715.047 267.78 716.097 267.04 716.957C265.4 718.827 264.47 719.807 264.47 719.807C264.47 719.807 263.34 718.387 261.44 715.727C251.01 701.187 217.46 649.487 220.05 589.767C220.19 586.637 220.42 583.54 220.74 580.477C222.71 582.577 224.626 584.753 226.49 587.007C265.75 634.357 269.41 698.067 269.7 713.817Z" fill="black"/>
<path d="M326.954 594.085C323.902 664.712 271.474 719.807 271.474 719.807C271.474 719.807 223.995 660.394 227.047 589.768C230.099 519.141 282.526 464.046 282.526 464.046C282.526 464.046 330.006 523.459 326.954 594.085Z" fill="#84B8E3"/>
<path d="M33.4585 617.191C37.0678 617.191 39.9938 614.265 39.9938 610.656C39.9938 607.046 37.0678 604.12 33.4585 604.12C29.8491 604.12 26.9231 607.046 26.9231 610.656C26.9231 614.265 29.8491 617.191 33.4585 617.191Z" fill="#84B8E3"/>
<path d="M163 717.926H436" stroke="#3F3D56" stroke-width="2" stroke-miterlimit="10"/>
<path d="M0 717.926H129" stroke="#3F3D56" stroke-width="2" stroke-miterlimit="10"/>
<path d="M65.4773 719.128V644.717" stroke="#3F3D56" stroke-width="2" stroke-miterlimit="10"/>
<path d="M65.4772 655.24C71.2888 655.24 76 650.528 76 644.717C76 638.905 71.2888 634.194 65.4772 634.194C59.6656 634.194 54.9543 638.905 54.9543 644.717C54.9543 650.528 59.6656 655.24 65.4772 655.24Z" fill="#3F3D56"/>
<path d="M65.4771 690.578C65.4771 690.578 63.9738 658.246 33.157 662.004Z" fill="#3F3D56"/>
<path d="M276.75 447.603C287.955 447.603 297.039 438.52 297.039 427.314C297.039 416.109 287.955 407.025 276.75 407.025C265.545 407.025 256.461 416.109 256.461 427.314C256.461 438.52 265.545 447.603 276.75 447.603Z" fill="#3F3D56"/>
<path d="M213.117 442.07C221.266 442.07 227.872 435.463 227.872 427.314C227.872 419.165 221.266 412.559 213.117 412.559C204.968 412.559 198.361 419.165 198.361 427.314C198.361 435.463 204.968 442.07 213.117 442.07Z" stroke="#3F3D56" stroke-width="2" stroke-miterlimit="10"/>
<path d="M340.383 442.07C348.533 442.07 355.139 435.463 355.139 427.314C355.139 419.165 348.533 412.559 340.383 412.559C332.234 412.559 325.628 419.165 325.628 427.314C325.628 435.463 332.234 442.07 340.383 442.07Z" stroke="#3F3D56" stroke-width="2" stroke-miterlimit="10"/>
<path d="M271.474 717.807L283 466.926" stroke="#3F3D56" stroke-width="2" stroke-miterlimit="10"/>
<path d="M914.25 292.045C925.455 292.045 934.539 282.961 934.539 271.756C934.539 260.55 925.455 251.467 914.25 251.467C903.045 251.467 893.961 260.55 893.961 271.756C893.961 282.961 903.045 292.045 914.25 292.045Z" fill="#3F3D56"/>
<path d="M494.617 30.5111C502.766 30.5111 509.372 23.9048 509.372 15.7556C509.372 7.60629 502.766 1 494.617 1C486.468 1 479.861 7.60629 479.861 15.7556C479.861 23.9048 486.468 30.5111 494.617 30.5111Z" stroke="#3F3D56" stroke-width="2" stroke-miterlimit="10"/>
<path d="M326.883 122.511C335.033 122.511 341.639 115.905 341.639 107.756C341.639 99.6063 335.033 93 326.883 93C318.734 93 312.128 99.6063 312.128 107.756C312.128 115.905 318.734 122.511 326.883 122.511Z" stroke="#3F3D56" stroke-width="2" stroke-miterlimit="10"/>
<path d="M654.987 176.895C681.366 176.895 702.75 155.511 702.75 129.132C702.75 102.753 681.366 81.3691 654.987 81.3691C628.609 81.3691 607.225 102.753 607.225 129.132C607.225 155.511 628.609 176.895 654.987 176.895Z" fill="#84B8E3"/>
<path d="M764.924 551.174L790.453 654.112L815.981 649.994L790.453 532.234L764.924 551.174Z" fill="#FBBEBE"/>
<path d="M799.511 647.523C799.511 647.523 784.973 652.439 786.889 655.746C788.806 659.052 788.806 679.64 782.218 687.051C775.63 694.463 759.16 717.521 778.1 718.344C797.041 719.168 815.981 706.815 815.981 706.815V685.404L819.275 705.168H822.569V682.934C822.569 682.934 830.804 668.934 825.863 660.699C820.922 652.464 817.701 645.288 811.489 645.994C805.276 646.7 799.511 647.523 799.511 647.523Z" fill="#2F2E41"/>
<path d="M664.458 638.465L660.34 660.7H689.163V638.465H664.458Z" fill="#FBBEBE"/>
<path d="M666.928 655.758C666.928 655.758 658.693 654.935 656.223 666.464C653.752 677.993 631.518 702.463 623.283 704.933C615.048 707.404 615.048 715.639 625.753 717.286C636.459 718.933 663.634 719.756 670.222 710.698C676.81 701.639 685.869 687.051 685.869 687.051L681.751 718.109H689.163C689.163 718.109 695.751 687.875 702.339 680.463C708.927 673.052 689.163 655.758 685.869 655.758H666.928Z" fill="#2F2E41"/>
<path d="M626.577 301.655C626.577 301.655 620.812 317.301 610.93 319.772C601.048 322.242 527.757 339.536 527.757 339.536C527.757 339.536 463.524 341.183 483.288 355.182C503.052 369.182 535.169 355.182 535.169 355.182C535.169 355.182 629.047 343.653 636.459 331.301C641.338 322.894 645.471 314.076 648.811 304.949L626.577 301.655Z" fill="#FBBEBE"/>
<path d="M657.87 232.481C657.87 232.481 610.93 309.066 616.695 310.713C622.459 312.36 675.986 329.654 678.457 323.066C680.927 316.478 680.927 286.008 680.927 286.008L657.87 232.481Z" fill="#2F2E41"/>
<path opacity="0.1" d="M657.87 232.481C657.87 232.481 610.93 309.066 616.695 310.713C622.459 312.36 675.986 329.654 678.457 323.066C680.927 316.478 680.927 286.008 680.927 286.008L657.87 232.481Z" fill="black"/>
<path d="M779.748 214.364L885.979 268.715C885.979 268.715 946.094 284.361 932.918 296.714C919.742 309.066 876.92 286.008 876.92 286.008L759.16 232.481L779.748 214.364Z" fill="#FBBEBE"/>
<path d="M643.87 171.542C643.87 171.542 664.458 202.835 662.811 210.246C662.811 210.246 664.458 215.187 661.987 218.481C659.517 221.775 660.34 241.539 660.34 241.539L668.575 253.068L679.281 217.658L684.221 179.777C684.221 179.777 673.104 164.542 674.751 157.131C676.398 149.719 643.87 171.542 643.87 171.542Z" fill="#FBBEBE"/>
<path d="M708.927 349.417C708.927 349.417 662.811 472.942 662.811 527.293C662.811 581.644 645.517 643.406 658.693 649.171C671.869 654.935 738.573 655.759 740.22 649.171C741.867 642.583 731.985 374.946 727.044 364.24C722.103 353.535 708.927 349.417 708.927 349.417Z" fill="#2F2E41"/>
<path opacity="0.1" d="M708.927 349.417C708.927 349.417 662.811 472.942 662.811 527.293C662.811 581.644 645.517 643.406 658.693 649.171C671.869 654.935 738.573 655.759 740.22 649.171C741.867 642.583 731.985 374.946 727.044 364.24C722.103 353.535 708.927 349.417 708.927 349.417Z" fill="black"/>
<path d="M654.576 176.483C671.404 176.483 685.045 162.842 685.045 146.014C685.045 129.186 671.404 115.544 654.576 115.544C637.748 115.544 624.106 129.186 624.106 146.014C624.106 162.842 637.748 176.483 654.576 176.483Z" fill="#FBBEBE"/>
<path d="M663.634 238.245L661.429 219.661C661.429 219.661 654.576 229.187 654.576 236.598C654.576 244.01 650.458 270.362 667.752 286.832C685.045 303.302 688.339 306.596 689.163 309.89C689.986 313.184 694.104 313.184 694.104 313.184L717.985 409.533C717.985 409.533 725.397 665.64 736.926 668.934C748.455 672.228 783.865 668.934 786.336 664.817C788.806 660.699 782.218 551.174 782.218 551.174C782.218 551.174 800.335 648.347 806.923 648.347C813.511 648.347 817.628 634.347 815.981 633.524C814.334 632.7 804.452 569.291 800.335 549.527C796.217 529.763 797.864 362.593 797.864 362.593C797.864 362.593 811.04 341.182 765.748 299.184C765.748 299.184 736.926 215.187 735.279 215.187C733.632 215.187 701.515 169.895 701.515 169.895C701.515 169.895 683.398 169.895 680.104 180.6C676.81 191.306 663.634 238.245 663.634 238.245Z" fill="#2F2E41"/>
<path d="M691.633 176.483L701.515 169.895C701.515 169.895 742.69 194.6 771.513 196.247C800.335 197.894 799.512 214.364 787.983 225.893C776.454 237.422 731.161 276.95 729.514 267.068C727.867 257.186 691.633 176.483 691.633 176.483Z" fill="#2F2E41"/>
<path d="M654.988 135.72C673.18 135.72 687.928 126.872 687.928 115.956C687.928 105.041 673.18 96.1924 654.988 96.1924C636.796 96.1924 622.048 105.041 622.048 115.956C622.048 126.872 636.796 135.72 654.988 135.72Z" fill="#84B8E3"/>
<path d="M658.281 101.133C669.197 101.133 678.045 92.2847 678.045 81.3694C678.045 70.4541 669.197 61.6055 658.281 61.6055C647.366 61.6055 638.518 70.4541 638.518 81.3694C638.518 92.2847 647.366 101.133 658.281 101.133Z" fill="#84B8E3"/>
<path d="M631.93 70.6638C631.93 65.7786 633.739 61.0665 637.009 57.4366C640.278 53.8067 644.776 51.5161 649.635 51.0068C648.951 50.9357 648.264 50.9001 647.576 50.8999C642.334 50.8999 637.307 52.9822 633.601 56.6886C629.894 60.3951 627.812 65.4221 627.812 70.6638C627.812 75.9056 629.894 80.9326 633.601 84.639C637.307 88.3455 642.334 90.4278 647.576 90.4278C648.264 90.4276 648.951 90.3919 649.635 90.3209C644.776 89.8116 640.278 87.521 637.009 83.8911C633.739 80.2612 631.93 75.5491 631.93 70.6638V70.6638Z" fill="#84B8E3"/>
<path d="M172.564 243.884C202.562 243.884 226.879 219.567 226.879 189.569C226.879 159.572 202.562 135.254 172.564 135.254C142.567 135.254 118.249 159.572 118.249 189.569C118.249 219.567 142.567 243.884 172.564 243.884Z" fill="#84B8E3"/>
<path d="M495.5 718.368H887.5" stroke="#3F3D56" stroke-width="2" stroke-miterlimit="10"/>
<path d="M962.493 173.949L915.015 221.427L895.059 201.472C894.426 200.838 893.674 200.336 892.846 199.993C892.019 199.65 891.132 199.474 890.236 199.474C889.34 199.474 888.453 199.65 887.625 199.993C886.798 200.336 886.046 200.838 885.412 201.472L884.695 200.4C882.031 203.064 882.748 208.455 885.412 211.119L911.304 237.011C912.28 237.986 913.603 238.535 914.983 238.535C916.363 238.536 917.687 237.988 918.663 237.013L972.135 183.596C974.801 180.933 975.768 176.05 973.103 173.386C970.44 170.723 965.156 171.286 962.493 173.949Z" fill="#84B8E3"/>
<path opacity="0.1" d="M962.493 173.949L915.015 221.427L895.059 201.472C894.426 200.838 893.674 200.336 892.846 199.993C892.019 199.65 891.132 199.474 890.236 199.474C889.34 199.474 888.453 199.65 887.625 199.993C886.798 200.336 886.046 200.838 885.412 201.472L884.695 200.4C882.031 203.064 882.748 208.455 885.412 211.119L911.304 237.011C912.28 237.986 913.603 238.535 914.983 238.535C916.363 238.536 917.687 237.988 918.663 237.013L972.135 183.596C974.801 180.933 975.768 176.05 973.103 173.386C970.44 170.723 965.156 171.286 962.493 173.949Z" fill="black"/>
<path d="M962.493 171.844L915.015 219.322L895.06 199.367C894.426 198.734 893.674 198.231 892.846 197.888C892.019 197.545 891.132 197.369 890.236 197.369C889.34 197.369 888.453 197.545 887.626 197.888C886.798 198.231 886.046 198.734 885.413 199.367V199.367C884.779 200 884.277 200.752 883.934 201.58C883.591 202.408 883.415 203.295 883.415 204.19C883.415 205.086 883.591 205.973 883.934 206.801C884.277 207.629 884.779 208.381 885.413 209.014L911.304 234.906C912.28 235.882 913.603 236.43 914.983 236.43C916.363 236.431 917.687 235.883 918.663 234.908L972.135 181.491C972.769 180.858 973.272 180.106 973.615 179.279C973.958 178.451 974.135 177.564 974.135 176.668C974.135 175.772 973.959 174.885 973.616 174.057C973.274 173.23 972.771 172.478 972.138 171.844V171.844C970.859 170.565 969.124 169.847 967.315 169.847C965.507 169.847 963.772 170.565 962.493 171.844V171.844Z" fill="#84B8E3"/>
<path d="M231.541 284.484L240.871 336.8L234.233 340.418L202.895 311.662L210.085 353.583L203.32 357.27L164.404 321.082L170.916 317.533L202.472 346.99L195.317 304.23L201.133 301.06L233.046 330.569L225.535 287.758L231.541 284.484ZM292.513 301.514L295.511 307.013L263.397 324.52L239.274 280.268L270.503 263.244L273.501 268.744L248.594 282.322L256.003 295.914L278.192 283.817L281.121 289.191L258.932 301.287L266.721 315.574L292.513 301.514ZM281.624 257.181L287.946 253.735L309.071 292.487L333.03 279.426L336.028 284.926L305.748 301.433L281.624 257.181ZM362.543 271.128C358.117 273.541 353.585 274.754 348.946 274.768C344.326 274.717 340.074 273.536 336.19 271.225C332.284 268.872 329.158 265.546 326.815 261.247C324.472 256.949 323.381 252.541 323.543 248.025C323.682 243.466 325.014 239.241 327.54 235.349C330.042 231.416 333.506 228.243 337.931 225.83C341.387 223.947 344.869 222.813 348.379 222.431C351.865 222.007 355.24 222.381 358.503 223.554L356.565 229.777C351.329 228.094 346.224 228.608 341.251 231.319C337.964 233.111 335.395 235.468 333.544 238.391C331.693 241.313 330.721 244.494 330.628 247.934C330.554 251.309 331.391 254.598 333.137 257.801C334.883 261.004 337.206 263.51 340.105 265.319C343.024 267.063 346.213 267.948 349.672 267.976C353.131 268.004 356.504 267.122 359.792 265.33C364.723 262.642 367.909 258.608 369.351 253.23L375.631 254.973C374.848 258.352 373.325 261.424 371.06 264.189C368.838 266.931 365.998 269.244 362.543 271.128ZM407.49 246.626C403.023 249.061 398.47 250.286 393.831 250.3C389.169 250.272 384.863 249.093 380.914 246.763C377.007 244.41 373.894 241.105 371.573 236.848C369.253 232.592 368.162 228.184 368.301 223.625C368.482 219.044 369.835 214.807 372.361 210.916C374.863 206.982 378.348 203.798 382.816 201.362C387.241 198.95 391.784 197.758 396.447 197.786C401.086 197.771 405.359 198.941 409.266 201.294C413.149 203.605 416.263 206.91 418.606 211.209C420.95 215.507 422.052 219.936 421.913 224.495C421.751 229.011 420.419 233.236 417.916 237.17C415.391 241.061 411.916 244.213 407.49 246.626ZM404.423 240.999C407.668 239.23 410.174 236.907 411.941 234.031C413.75 231.131 414.691 227.994 414.765 224.619C414.857 221.179 414.031 217.858 412.285 214.655C410.539 211.452 408.206 208.978 405.288 207.235C402.388 205.426 399.23 204.496 395.813 204.445C392.438 204.372 389.128 205.219 385.883 206.989C382.638 208.758 380.09 211.103 378.239 214.026C376.43 216.925 375.479 220.095 375.386 223.535C375.312 226.91 376.149 230.199 377.895 233.402C379.641 236.605 381.964 239.111 384.863 240.92C387.782 242.663 390.95 243.561 394.367 243.611C397.826 243.639 401.178 242.768 404.423 240.999ZM481.358 205.701L463.719 173.495L462.372 209.081L459.464 210.667L428.927 192.708L446.399 224.759L440.33 228.067L416.207 183.815L421.391 180.989L456.805 202.029L458.057 161.002L463.241 158.176L487.427 202.393L481.358 205.701ZM529.824 172.147L532.822 177.647L500.708 195.153L476.584 150.902L507.813 133.877L510.812 139.377L485.904 152.955L493.313 166.547L515.503 154.451L518.432 159.824L496.243 171.92L504.031 186.207L529.824 172.147Z" fill="#2F2E41"/>
<path d="M352.019 333.121L358.341 329.675L379.466 368.427L403.425 355.366L406.423 360.866L376.142 377.373L352.019 333.121ZM426.417 350.623C423.088 352.438 419.588 353.689 415.918 354.378C412.267 355.002 409.109 354.974 406.442 354.295L406.093 348.089C408.606 348.687 411.433 348.759 414.575 348.304C417.735 347.784 420.706 346.765 423.488 345.249C427.155 343.25 429.561 341.146 430.707 338.936C431.83 336.683 431.828 334.525 430.703 332.46C429.876 330.943 428.704 329.996 427.187 329.62C425.689 329.179 424.065 329.108 422.314 329.406C420.605 329.682 418.251 330.227 415.251 331.042C411.485 332.057 408.352 332.726 405.85 333.051C403.391 333.353 400.975 333.085 398.604 332.245C396.252 331.34 394.307 329.476 392.767 326.653C391.481 324.292 390.932 321.831 391.12 319.268C391.351 316.682 392.42 314.131 394.328 311.615C396.237 309.099 399.066 306.818 402.817 304.773C405.43 303.349 408.185 302.285 411.081 301.58C413.977 300.876 416.676 300.662 419.178 300.939L419.848 307.133C417.351 306.964 414.888 307.159 412.459 307.718C410.007 308.234 407.769 309.044 405.746 310.147C402.164 312.1 399.823 314.223 398.723 316.518C397.665 318.789 397.699 320.957 398.825 323.022C399.652 324.54 400.835 325.507 402.375 325.925C403.892 326.301 405.538 326.361 407.311 326.104C409.104 325.783 411.447 325.217 414.339 324.405C418.105 323.391 421.218 322.733 423.677 322.431C426.137 322.129 428.531 322.409 430.86 323.272C433.231 324.111 435.175 325.922 436.691 328.703C437.955 331.021 438.483 333.494 438.275 336.122C438.045 338.708 436.954 341.27 435.004 343.81C433.03 346.307 430.168 348.578 426.417 350.623ZM445.644 282.083C451.375 278.958 456.632 277.87 461.412 278.817C466.193 279.765 469.893 282.641 472.512 287.445C475.131 292.25 475.544 296.918 473.75 301.449C471.956 305.98 468.193 309.808 462.461 312.933L451.525 318.895L458.831 332.297L452.509 335.743L428.386 291.491L445.644 282.083ZM459.273 307.536C463.277 305.354 465.873 302.845 467.061 300.011C468.227 297.134 467.936 294.094 466.19 290.891C464.444 287.688 462.058 285.818 459.032 285.281C455.983 284.702 452.456 285.504 448.452 287.686L437.705 293.545L448.527 313.395L459.273 307.536Z" fill="#2F2E41"/>
</g>
<defs>
<clipPath id="clip0">
<rect width="974.683" height="719.807" fill="white"/>
</clipPath>
</defs>
</svg>
