<svg width="1057" height="753" viewBox="0 0 1057 753" fill="none" xmlns="http://www.w3.org/2000/svg">
<path d="M60.8032 184.519C60.8032 184.519 83.2085 179.296 97.0047 166.528C112.709 152.002 112.673 142.145 112.673 142.145L154.826 165.985C154.826 165.985 154.273 174.003 141.422 190.874C127.96 208.552 113.991 214.269 105.267 216.993C103.011 217.699 101.681 218.012 101.681 218.012L60.8032 184.519Z" fill="#F2F2F2"/>
<path d="M756.908 66.1413C756.908 66.1413 779.88 67.3612 796.681 58.9397C815.807 49.3552 818.516 39.8784 818.516 39.8784L852.371 74.5009C852.371 74.5009 849.604 82.0548 832.565 94.6802C814.721 107.914 799.703 109.524 790.568 109.71C788.208 109.755 786.841 109.693 786.841 109.693L756.908 66.1413Z" fill="#F2F2F2"/>
<path d="M856.169 133.669C856.169 133.669 862.638 155.74 876.162 168.803C891.553 183.664 901.392 183.074 901.392 183.074L879.957 226.489C879.957 226.489 871.909 226.385 854.344 214.508C835.939 202.059 829.444 188.44 826.235 179.881C825.404 177.67 825.013 176.358 825.013 176.358L856.169 133.669Z" fill="#F2F2F2"/>
<g opacity="0.3">
<path opacity="0.3" d="M687.969 465.017C687.749 470.294 687.375 480.798 687.069 490.055H433.792V509.905H446.528V611.247C385.595 576.247 349.623 557.527 267.373 570.147C245.204 573.56 223.889 576.301 203.444 577.656C202.822 571.53 202.003 563.732 201.102 555.604C201.837 555.235 202.543 554.871 203.221 554.475C203.221 554.475 191.362 482.151 185.63 460.978L187.295 460.018C187.295 460.018 186.618 452.672 185.883 442.71C193.677 441.86 222.901 438.359 226.007 433.706C227.758 431.082 228.635 428.171 229.028 425.915L240.718 423.738L243.541 414.453L471.178 413.267V465.268C471.178 469.927 474.962 473.709 479.621 473.709H505.485L498.508 489.545H568.197V485.028H527.707L532.475 473.707H579.856C584.511 473.707 588.297 469.924 588.297 465.266V412.669L620.43 412.502L640.023 437.371C643.412 441.665 649.485 442.681 654.085 439.742C662.555 434.322 676.109 425.545 686.976 417.807C687.689 434.582 688.479 453.383 687.969 465.017Z" fill="#008CFF"/>
<path opacity="0.3" d="M114.045 462.17C107.407 480.912 100.294 514.733 107.212 564.732C107.212 564.732 109.245 565.015 112.8 565.379C112.941 567.017 113.082 568.716 113.224 570.435C83.3188 561.878 56.0151 545.843 31.4213 518.573C-24.3729 456.719 -11.2152 345.746 114.41 300.912C113.45 318.557 114.804 326.408 112.743 336.796C112.292 338.6 111.953 340.043 111.727 341.003C111.668 341.256 111.614 341.511 111.529 341.79C111.529 341.846 111.501 341.935 111.501 341.988C110.824 344.359 109.976 346.9 108.903 349.752C107.999 352.123 107.689 353.842 107.858 355.028V355.056C104.16 360.055 101.025 369.344 97.9758 385.491C94.9264 401.637 93.063 419.566 94.4748 422.358C95.0113 423.462 98.2016 423.804 101.9 423.804C107.633 423.804 114.579 422.982 114.579 422.982C116.442 422.872 118.507 422.674 120.677 422.448C122.513 435.633 112.207 461.603 112.207 461.603L114.045 462.17Z" fill="#008CFF"/>
<path opacity="0.3" d="M903.206 309.607C831.403 281.548 782.673 269.946 741.33 176.077C699.995 82.2099 670.712 21.3984 563.954 4.20565C477.776 -9.6839 393.805 10.9276 346.539 64.5943L374.464 64.45L495.652 63.826L650.159 63.0382C668.116 62.9287 682.77 77.4363 682.855 95.394L684.323 379.648V380.492C685.936 379.648 687.77 378.971 689.663 378.434C695.003 373.576 706.014 368.155 715.276 366.492C715.276 366.492 715.276 366.521 715.242 366.574C715.497 366.492 715.641 366.436 715.641 366.436L741.304 367.876C741.304 367.876 767.146 382.327 773.072 386C776.909 388.371 773.157 408.105 769.854 424.476C802.208 425.975 804.636 432.211 804.636 432.211C804.636 432.211 800.849 459.852 796.341 490.056H855.182V509.905H841.514V535.96C860.207 525.263 881.134 515.267 904.93 506.571C1065.82 447.854 991.157 343.964 903.206 309.607ZM749.684 327.339C744.013 347.041 739.242 349.184 739.242 349.184C734.046 354.576 715.013 361.216 710.785 360.79C706.574 360.366 703.323 346.276 702.228 345.147C701.149 343.99 696.013 342.693 696.718 340.94C697.397 339.164 702.737 328.265 700.275 326.853C698.187 325.639 700.538 319.796 702.109 316.439C702.109 316.439 689.944 304.158 700.419 298.315C730.319 281.602 738.596 302.324 740.905 302.919C743.223 303.509 756.263 304.384 749.684 327.339Z" fill="#008CFF"/>
<path opacity="0.3" d="M749.689 327.339C744.018 347.041 739.247 349.184 739.247 349.184C734.051 354.576 715.018 361.216 710.79 360.79C706.579 360.366 703.328 346.276 702.233 345.147C701.154 343.989 696.018 342.694 696.723 340.941C697.402 339.165 702.742 328.265 700.28 326.853C698.192 325.639 700.543 319.796 702.114 316.439C702.114 316.439 689.948 304.159 700.424 298.315C730.324 281.602 738.601 302.324 740.911 302.919C743.228 303.509 756.268 304.384 749.689 327.339Z" fill="#008CFF"/>
<path opacity="0.3" d="M187.2 355.852C184.8 353.537 182.515 351.674 180.624 350.74C173.847 347.354 161.646 345.122 157.724 344.444L153.489 340.777C153.15 339.673 152.783 338.544 152.472 337.358C152.165 336.201 151.879 335.043 151.625 333.886C152.953 334.112 154.026 334.199 154.788 334.227C159.362 334.309 163.484 321.21 163.484 321.21C163.484 321.21 167.409 320.422 168.366 319.832C169.298 319.236 165.574 307.267 166.785 303.202C168.025 299.139 168.564 293.97 168.564 293.97C168.818 291.54 168.649 289.227 168.084 287.05C174.662 285.698 180.903 284.228 186.832 282.706L187.2 355.852Z" fill="#008CFF"/>
<path opacity="0.3" d="M243.533 414.456L240.71 423.741L229.021 425.918C228.625 428.173 227.75 431.084 225.999 433.71C222.893 438.362 193.669 441.866 185.877 442.712C186.61 452.676 187.288 460.021 187.288 460.021L185.622 460.981C191.354 482.154 203.213 554.479 203.213 554.479C202.535 554.876 201.829 555.241 201.095 555.608C201.996 563.736 202.815 571.533 203.436 577.66C193.045 578.306 182.883 578.647 172.969 578.503C162.014 578.331 151.344 577.6 140.95 576.16C131.466 574.864 122.23 572.973 113.226 570.432C113.081 568.713 112.94 567.013 112.802 565.376C109.244 565.012 107.214 564.729 107.214 564.729C100.296 514.73 107.409 480.909 114.047 462.167L112.212 461.599C112.212 461.599 122.517 435.63 120.683 422.446C118.509 422.671 116.447 422.869 114.583 422.98C114.583 422.98 107.637 423.801 101.906 423.801C98.207 423.801 95.0193 423.459 94.4793 422.356C93.0676 419.566 94.931 401.634 97.9812 385.489C101.031 369.337 104.164 360.053 107.864 355.053V355.025C107.694 353.839 108.005 352.12 108.908 349.748C109.981 346.897 110.828 344.357 111.506 341.985C111.506 341.929 111.534 341.841 111.534 341.788C111.619 341.505 111.676 341.254 111.732 341C111.957 340.04 112.296 338.595 112.748 336.793C114.806 326.404 113.454 318.554 114.414 300.909C115.515 300.516 116.644 300.121 117.802 299.723C118.311 299.551 118.816 299.387 119.324 299.19C126.895 296.649 134.885 294.36 143.268 292.304C148.859 290.921 154.619 289.673 160.577 288.55C162.722 288.151 164.841 287.728 166.902 287.276C167.297 287.22 167.692 287.138 168.088 287.05C168.652 289.227 168.822 291.54 168.567 293.97C168.567 293.97 168.031 299.136 166.789 303.201C165.575 307.264 169.302 319.236 168.37 319.832C167.41 320.422 163.488 321.21 163.488 321.21C163.488 321.21 159.366 334.312 154.792 334.227C154.026 334.199 152.956 334.111 151.629 333.886C151.883 335.043 152.165 336.201 152.476 337.358C152.786 338.544 153.154 339.673 153.493 340.776L157.728 344.444C161.653 345.121 173.85 347.354 180.627 350.74C182.519 351.671 184.803 353.534 187.203 355.852V356.529L187.347 380.862V382.191C187.376 386.652 188.279 390.915 189.914 394.779C190.14 395.259 190.366 395.74 190.564 396.191C195.872 407.119 207.109 414.629 220.041 414.569L243.533 414.456Z" fill="#008CFF"/>
<path opacity="0.3" d="M297.491 195.921V220.821C297.491 225.338 293.848 229.008 289.302 229.008H280.157C288.145 218.052 293.371 206.307 297.267 194.083C297.403 194.682 297.491 195.297 297.491 195.921Z" fill="#008CFF"/>
<path opacity="0.3" d="M297.491 260.881V285.781C297.491 290.322 293.848 293.996 289.302 293.996H264.401C259.88 293.996 256.213 290.322 256.213 285.781V260.881C256.213 256.364 259.884 252.694 264.401 252.694H289.302C293.848 252.694 297.491 256.364 297.491 260.881Z" fill="#008CFF"/>
<path opacity="0.3" d="M297.491 325.865V350.765C297.491 355.281 293.848 358.951 289.302 358.951H264.401C259.88 358.951 256.213 355.279 256.213 350.765V325.865C256.213 321.323 259.884 317.649 264.401 317.649H289.302C293.848 317.649 297.491 321.323 297.491 325.865Z" fill="#008CFF"/>
<path opacity="0.3" d="M588.291 412.675V465.272C588.291 469.93 584.505 473.713 579.849 473.713H532.469L527.7 485.034H568.191V489.55H498.502L505.478 473.716H479.614C474.955 473.716 471.172 469.933 471.172 465.275V413.274L588.291 412.675Z" fill="#008CFF"/>
<path opacity="0.3" d="M613.988 131.95H322.961V142.085H613.988V131.95Z" fill="#008CFF"/>
<path opacity="0.3" d="M613.988 196.825H322.961V206.959H613.988V196.825Z" fill="#008CFF"/>
<path opacity="0.3" d="M613.988 266.95H322.961V277.114H613.988V266.95Z" fill="#008CFF"/>
<path opacity="0.3" d="M613.988 331.856H322.961V341.991H613.988V331.856Z" fill="#008CFF"/>
<path opacity="0.3" d="M855.176 490.059V509.908H841.517V535.962C837.731 538.108 834.063 540.284 830.472 542.486C828.358 543.788 826.295 545.084 824.232 546.386C781.65 573.541 751.045 603.719 722.13 628.111C713.692 635.224 705.414 641.854 697.001 647.788C682.264 658.179 667.186 666.363 650.385 671.16C641.268 673.791 631.664 675.396 621.302 675.82C585.019 677.315 539.816 664.19 476.113 628.221C471.313 625.514 466.683 622.888 462.221 620.291C460.104 619.105 458.045 617.891 455.982 616.705C452.762 614.871 449.6 613.033 446.523 611.252V509.908H433.785V490.059H687.06C687.374 480.802 687.739 470.297 687.96 465.021C688.47 453.387 687.68 434.585 686.975 417.816C676.1 425.551 662.552 434.331 654.081 439.752C649.479 442.691 643.408 441.677 640.02 437.38L620.427 412.512L651.966 412.339C669.642 412.252 683.987 398.052 684.327 380.492C685.931 379.648 687.773 378.971 689.658 378.434C694.998 373.576 706.009 368.155 715.271 366.492C715.271 366.492 715.271 366.521 715.245 366.574C715.5 366.492 715.636 366.436 715.636 366.436L741.308 367.876C741.308 367.876 767.141 382.327 773.067 386C776.912 388.371 773.152 408.105 769.849 424.476C802.211 425.975 804.639 432.211 804.639 432.211C804.639 432.211 800.853 459.852 796.336 490.057H855.176V490.059Z" fill="#008CFF"/>
</g>
<path opacity="0.7" d="M297.491 195.922V220.821C297.491 225.338 293.848 229.008 289.302 229.008H264.401C259.88 229.008 256.213 225.335 256.213 220.821V195.922C256.213 191.404 259.884 187.734 264.401 187.734H289.302C293.199 187.734 296.446 190.448 297.265 194.086C297.404 194.682 297.491 195.298 297.491 195.922Z" fill="#F6AD55"/>
<path opacity="0.7" d="M297.491 131.442V156.342C297.491 160.884 293.848 164.557 289.302 164.557H264.401C259.88 164.557 256.213 160.884 256.213 156.342V131.442C256.213 126.926 259.884 123.256 264.401 123.256H289.302C293.848 123.256 297.491 126.928 297.491 131.442Z" fill="#F6AD55"/>
<path opacity="0.7" d="M297.491 260.881V285.781C297.491 290.322 293.848 293.996 289.302 293.996H264.401C259.88 293.996 256.213 290.322 256.213 285.781V260.881C256.213 256.364 259.884 252.694 264.401 252.694H289.302C293.848 252.694 297.491 256.364 297.491 260.881Z" fill="#F6AD55"/>
<path opacity="0.7" d="M297.491 325.865V350.765C297.491 355.281 293.848 358.951 289.302 358.951H264.401C259.88 358.951 256.213 355.279 256.213 350.765V325.865C256.213 321.323 259.884 317.649 264.401 317.649H289.302C293.848 317.649 297.491 321.323 297.491 325.865Z" fill="#F6AD55"/>
<path opacity="0.6" d="M682.851 95.3945C682.766 77.4368 668.11 62.9292 650.152 63.0387L495.645 63.8265L374.457 64.4505L346.532 64.5948L218.253 65.2409C200.27 65.3572 185.782 79.9802 185.867 97.9668L186.827 282.706L187.194 355.853V356.53L187.338 380.862V382.192C187.366 386.652 188.27 390.916 189.904 394.78C190.13 395.26 190.357 395.74 190.554 396.192C195.862 407.119 207.101 414.629 220.033 414.57L243.522 414.46L471.159 413.274L588.281 412.678L620.413 412.512L651.953 412.34C669.628 412.252 683.971 398.052 684.311 380.492V379.648L682.851 95.3945ZM297.489 350.768C297.489 355.285 293.846 358.956 289.3 358.956H264.399C259.879 358.956 256.211 355.282 256.211 350.768V325.869C256.211 321.326 259.882 317.654 264.399 317.654H289.3C293.846 317.654 297.489 321.326 297.489 325.869V350.768ZM297.489 285.781C297.489 290.323 293.846 293.996 289.3 293.996H264.399C259.879 293.996 256.211 290.323 256.211 285.781V260.881C256.211 256.364 259.882 252.694 264.399 252.694H289.3C293.846 252.694 297.489 256.367 297.489 260.881V285.781ZM297.489 220.822C297.489 225.339 293.846 229.009 289.3 229.009H264.399C259.879 229.009 256.211 225.335 256.211 220.822V195.922C256.211 191.405 259.882 187.735 264.399 187.735H289.3C293.197 187.735 296.444 190.448 297.263 194.087C297.404 194.683 297.489 195.301 297.489 195.922V220.822ZM297.489 156.345C297.489 160.887 293.846 164.56 289.3 164.56H264.399C259.879 164.56 256.211 160.887 256.211 156.345V131.446C256.211 126.928 259.882 123.258 264.399 123.258H289.3C293.846 123.258 297.489 126.931 297.489 131.446V156.345ZM613.982 341.989H322.955V331.854H613.982V341.989ZM613.982 277.114H322.955V266.95H613.982V277.114ZM613.982 206.96H322.955V196.825H613.982V206.96ZM613.982 142.085H322.955V131.951H613.982V142.085Z" fill="#4299E1"/>
<path opacity="0.7" d="M613.988 131.95H322.961V142.085H613.988V131.95Z" fill="#F6AD55"/>
<path opacity="0.7" d="M613.988 196.824H322.961V206.959H613.988V196.824Z" fill="#F6AD55"/>
<path opacity="0.7" d="M613.988 266.95H322.961V277.114H613.988V266.95Z" fill="#F6AD55"/>
<path opacity="0.7" d="M613.988 331.856H322.961V341.991H613.988V331.856Z" fill="#F6AD55"/>
<path d="M613.988 131.95H322.961V142.085H613.988V131.95Z" fill="white"/>
<path d="M613.988 196.824H322.961V206.959H613.988V196.824Z" fill="white"/>
<path d="M613.988 266.95H322.961V277.114H613.988V266.95Z" fill="white"/>
<path d="M613.988 331.856H322.961V341.991H613.988V331.856Z" fill="white"/>
<path d="M297.491 131.442V156.342C297.491 160.884 293.848 164.557 289.302 164.557H264.401C259.88 164.557 256.213 160.884 256.213 156.342V131.442C256.213 126.926 259.884 123.256 264.401 123.256H289.302C293.848 123.256 297.491 126.928 297.491 131.442Z" fill="#F6AD55"/>
<path d="M297.491 260.881V285.781C297.491 290.322 293.848 293.996 289.302 293.996H264.401C259.88 293.996 256.213 290.322 256.213 285.781V260.881C256.213 256.364 259.884 252.694 264.401 252.694H289.302C293.848 252.694 297.491 256.364 297.491 260.881Z" fill="#F6AD55"/>
<path d="M275.449 283.321L263.988 273.365C263.048 272.543 262.951 271.126 263.765 270.183C264.578 269.246 266.002 269.147 266.944 269.962L275.045 277.003L286.577 264.113C287.398 263.182 288.821 263.105 289.753 263.932C290.685 264.765 290.767 266.188 289.931 267.12L275.449 283.321Z" fill="white"/>
<path d="M297.491 195.922V220.821C297.491 225.338 293.848 229.008 289.302 229.008H264.401C259.88 229.008 256.213 225.335 256.213 220.821V195.922C256.213 191.404 259.884 187.734 264.401 187.734H289.302C293.199 187.734 296.446 190.448 297.265 194.086C297.404 194.682 297.491 195.298 297.491 195.922Z" fill="#F6AD55"/>
<path d="M275.449 218.348L263.988 208.397C263.048 207.575 262.951 206.152 263.765 205.215C264.578 204.272 266.002 204.174 266.944 204.989L275.045 212.03L286.577 199.14C287.398 198.214 288.821 198.138 289.753 198.965C290.685 199.798 290.767 201.221 289.931 202.141L275.449 218.348Z" fill="white"/>
<path d="M297.491 325.865V350.765C297.491 355.281 293.848 358.951 289.302 358.951H264.401C259.88 358.951 256.213 355.279 256.213 350.765V325.865C256.213 321.323 259.884 317.649 264.401 317.649H289.302C293.848 317.649 297.491 321.323 297.491 325.865Z" fill="#F6AD55"/>
<path d="M275.449 348.292L263.988 338.34C263.048 337.524 262.951 336.102 263.765 335.153C264.578 334.216 266.002 334.118 266.944 334.933L275.045 341.974L286.577 329.083C287.398 328.158 288.821 328.082 289.753 328.912C290.685 329.739 290.767 331.162 289.931 332.082L275.449 348.292Z" fill="white"/>
<path d="M272.038 147.054C272.038 146.52 272.063 146.007 272.14 145.515C272.204 145.024 272.34 144.561 272.538 144.104C272.736 143.647 273.026 143.223 273.394 142.825C273.769 142.427 274.26 142.068 274.861 141.744C275.166 141.578 275.57 141.363 276.07 141.095C276.578 140.835 277.067 140.522 277.541 140.174C278.015 139.827 278.428 139.418 278.778 138.96C279.128 138.509 279.309 138.006 279.309 137.45C279.309 136.685 279.02 136.083 278.467 135.651C277.902 135.212 277.267 135.003 276.539 135.003C276.081 135.003 275.658 135.09 275.302 135.268C274.944 135.44 274.613 135.655 274.328 135.892C274.031 136.14 273.78 136.417 273.571 136.719C273.368 137.016 273.175 137.286 273.017 137.523L269.418 135.003C270.028 133.58 270.988 132.475 272.304 131.682C273.616 130.895 275.104 130.502 276.754 130.502C277.64 130.502 278.526 130.624 279.405 130.878C280.289 131.143 281.088 131.55 281.777 132.103C282.488 132.66 283.05 133.382 283.496 134.271C283.934 135.152 284.16 136.228 284.16 137.487C284.16 138.811 283.88 139.928 283.335 140.824C282.791 141.719 281.982 142.506 280.909 143.178C280.424 143.508 279.921 143.802 279.424 144.056C278.93 144.316 278.464 144.581 278.044 144.861C277.631 145.143 277.293 145.457 277.033 145.804C276.782 146.151 276.646 146.569 276.646 147.06H272.038V147.054ZM272.14 155.611V150.369H276.714V155.611H272.14Z" fill="white"/>
<path d="M850.121 399.13C850.121 399.13 857.243 397.893 857.116 394.999C856.972 392.1 858.194 388.151 858.636 386.928C859.239 385.297 859.298 379.512 861.267 380.334C863.229 381.161 861.59 389.89 861.599 391.798C861.599 393.712 867.77 388.362 869.647 388.345C871.514 388.328 879.486 399.87 874.842 403.006C870.198 406.149 863.22 406.205 862.507 406.927C861.802 407.65 855.656 410.075 855.656 410.075L850.121 399.13Z" fill="#EEA886"/>
<path d="M868.388 388.801C868.388 388.801 883.228 380.204 884.68 380.523C886.14 380.837 886.547 381.725 885.197 382.59C883.839 383.456 871.096 391.346 871.096 391.346C871.096 391.346 890.325 384.345 891.564 384.323C892.295 384.311 893.186 385.994 892.498 386.528C891.811 387.061 873.142 395.169 873.142 395.169C873.142 395.169 891.115 388.668 892.159 388.984C893.084 389.261 893.534 391.014 892.235 391.593C890.936 392.171 874.594 399.212 874.594 399.212C874.594 399.212 887.973 395.364 888.729 396.18C889.187 396.682 890.011 398.094 886.53 398.975C883.05 399.853 875.053 402.845 875.053 402.845L868.388 388.801Z" fill="#EEA886"/>
<path d="M760.861 583.556L789.988 705.007H796.406L771.702 583.292L760.861 583.556Z" fill="#858585"/>
<path d="M729.075 583.556L758.219 705.007H764.637L739.924 583.292L729.075 583.556Z" fill="#858585"/>
<path d="M693.559 583.556L664.431 705.007H658.008L682.709 583.292L693.559 583.556Z" fill="#858585"/>
<path d="M804.638 432.211C804.638 432.211 800.851 459.852 796.335 490.057C795.945 492.626 795.546 495.194 795.155 497.791V497.819C794.612 501.348 794.077 504.878 793.542 508.378C793.457 508.886 793.372 509.391 793.287 509.906C792.158 517.189 791.029 524.303 789.9 530.906C788.627 538.526 787.413 545.445 786.318 551.148C785.749 553.971 785.239 556.486 784.764 558.629C783.601 563.708 782.361 567.776 781.063 571.079C775.833 584.598 770.162 584.743 770.162 584.743H644.624C643.749 572.717 647.111 552.503 647.111 552.503L648.523 550.668L679.954 509.906L681.134 508.378L686.72 501.123V501.095L691.329 495.141L693.757 492.004L695.251 490.059L695.667 489.525L697.96 486.53L745.933 424.312C755.306 424.114 763.209 424.225 769.848 424.478C802.21 425.975 804.638 432.211 804.638 432.211Z" fill="#E2D2CA"/>
<path d="M689.017 508.076L705.376 505.222L694.467 477.756L689.017 508.076Z" fill="#24263D"/>
<path d="M623.043 692.96C623.043 692.96 612.288 699.344 607.423 701.73C602.544 704.107 583.598 704.837 581.729 706.619C579.862 708.402 580.56 714.065 583.697 714.625C586.842 715.202 609.882 717.223 617.565 715.406C625.245 713.589 639.626 716.578 642.808 715.491C645.988 714.404 643.89 697.247 642.65 693.401C641.411 689.556 623.043 692.96 623.043 692.96Z" fill="#0E538C"/>
<path d="M623.214 685.694L623.045 692.952C623.045 692.952 637.454 695.609 642.654 693.402L642.293 685.431L623.214 685.694Z" fill="#1C1E30"/>
<path d="M756.895 522.341C756.895 522.341 674.649 539.798 661.816 545.25C648.983 550.699 641.283 552.948 640.322 555.67C639.354 558.4 619.307 688.8 619.307 688.8H646.579C646.579 688.8 667.753 590.318 670.32 584.22C672.884 578.128 774.595 577.803 781.973 570.423C789.35 563.047 795.768 542.839 787.754 524.715C779.732 506.591 756.895 522.341 756.895 522.341Z" fill="#282B45"/>
<path d="M723.324 698.105C723.324 698.105 713.672 706.068 709.224 709.167C704.775 712.265 686.158 715.873 684.587 717.928C683.008 719.974 684.57 725.466 687.762 725.551C690.963 725.628 714.028 724.108 721.346 721.137C728.664 718.174 743.325 718.921 746.305 717.359C749.285 715.797 744.59 699.166 742.774 695.558C740.957 691.933 723.324 698.105 723.324 698.105Z" fill="#0E538C"/>
<path d="M722.375 690.906L723.318 698.105C723.318 698.105 737.97 698.521 742.767 695.558L741.188 687.731L722.375 690.906Z" fill="#0E538C"/>
<path d="M762.037 510.187C762.037 510.187 672.898 550.825 667.119 563.992C661.24 577.402 719.149 694.548 719.149 694.548L745.78 690.43C745.78 690.43 702.238 579.011 704.623 573.447C707.009 567.883 848.231 551.06 815.64 513.584C783.057 476.095 762.037 510.187 762.037 510.187Z" fill="#282B45"/>
<path d="M761.641 384.617C765.919 382.394 780.19 387.265 784.401 393.825C794.206 409.082 812.713 427.928 812.713 427.928L853.997 393.224L862.274 413.911L813.273 455.211C809.097 458.728 802.933 458.514 799.011 454.708C786.141 442.213 759.646 415.936 757.6 409.364C754.892 400.669 753.457 388.868 761.641 384.617Z" fill="#0B4870"/>
<path d="M769.859 424.476C768.042 433.513 766.353 441.53 766.183 445.03C765.903 450.504 760.504 472.104 755.826 490.056C754.187 496.298 752.625 502.111 751.411 506.63L750.936 508.377L750.537 509.905H750.512L748.839 516.085L720.748 509.905L713.829 508.377L702.088 505.781L696.383 504.541C696.723 503.327 696.604 500.191 696.264 495.874C696.128 494.121 695.933 492.148 695.729 490.056C695.704 489.884 695.67 489.692 695.67 489.522C695.39 486.871 695.05 484.02 694.685 481.053V481.025C694.575 480.147 694.49 479.243 694.346 478.312C692.996 467.302 691.357 455.335 690.449 447.6C689.659 440.74 688.81 428.827 688.335 416.828C687.681 399.861 687.741 382.779 689.719 379.758C690.084 379.196 690.678 378.6 691.434 377.982C697.164 373.378 712.581 367.568 715.238 366.574C715.493 366.492 715.637 366.436 715.637 366.436L741.3 367.876C741.3 367.876 767.142 382.327 773.068 386C776.914 388.371 773.161 408.105 769.859 424.476Z" fill="white"/>
<path d="M748.852 516.088L751.416 506.622L696.277 495.885L696.396 504.539L748.852 516.088Z" fill="#1F2136"/>
<path d="M721.423 500.293L708.34 497.563V507.907L721.423 510.956V500.293Z" fill="#4F558A"/>
<path d="M727.279 473.358C727.424 476.065 727.594 478.811 727.738 481.584L727.772 481.618C729.64 512.059 732.416 543.906 732.416 543.906C736.244 547.105 784.838 535.818 784.838 535.818C784.838 535.818 778.853 527.702 773.088 505.205C767.29 482.741 771.823 461.159 777.834 424.608C783.811 388.052 778.853 388.255 778.853 388.255L741.312 367.87C738.851 377.22 728.892 411.142 726.541 430.579C725.7 437.677 726.227 454.66 727.279 473.358Z" fill="#0B4870"/>
<path d="M715.271 366.492C715.271 366.492 715.271 366.521 715.245 366.574C714.906 367.424 712.028 375.015 708.691 385.943C707.087 391.22 705.389 397.263 703.81 403.697C703.81 403.697 703.81 403.725 703.784 403.725C702.231 410.049 700.788 416.799 699.718 423.544C697.205 439.014 696.102 461.122 694.862 478.738C694.803 479.526 694.743 480.265 694.692 481.028V481.056C694.463 484.276 694.208 487.292 693.954 490.059C693.894 490.736 693.843 491.388 693.758 492.004C692.884 500.924 691.78 506.941 690.091 507.364C689.718 507.446 689.378 507.531 689.098 507.618C685.176 508.549 686.525 507.79 686.525 507.79C686.525 507.79 686.61 505.134 686.721 501.125V501.097C686.84 498.02 686.95 494.183 687.06 490.059C687.374 480.802 687.739 470.297 687.969 465.021C688.478 453.387 687.68 434.585 686.975 417.815C686.211 400.343 683.274 382.411 684.327 379.648C684.777 378.456 683.283 379.814 684.777 378.456C690.116 373.606 706.009 368.157 715.271 366.492Z" fill="#0B4870"/>
<path d="M716.17 362.072C716.17 363.797 716.026 365.38 715.644 366.434C715.644 366.434 718.521 377.68 741.307 367.873C741.307 367.873 736.799 351.107 741.307 337.045L715.644 352.97C715.644 352.97 715.958 355.499 716.094 358.455C716.17 359.644 716.204 360.914 716.17 362.072Z" fill="#EEA987"/>
<path d="M740.376 363.415C740.376 363.415 731.428 367.743 722.387 368.581L726.793 377.942L741.31 367.881L740.376 363.415Z" fill="#D3D3D3"/>
<path d="M722.391 368.581C722.391 368.581 716.092 366.498 716.135 363.415L715.277 366.504L717.85 376.384L722.391 368.581Z" fill="#D3D3D3"/>
<path d="M722.384 368.582L719.091 374.239C719.091 374.239 720.619 375.981 725.509 375.227L722.384 368.582Z" fill="#F6AD55"/>
<path d="M719.809 374.73C719.809 374.73 706.336 414.341 706.234 442.467C706.124 470.588 708.34 487.377 708.34 487.377L711.311 492.913L715.64 487.857C715.64 487.857 712.584 406.196 724.563 375.343C724.563 375.343 720.301 373.313 719.809 374.73Z" fill="#F6AD55"/>
<path d="M716.095 358.453C716.163 359.644 716.197 360.911 716.163 362.068C734.271 362.357 734.551 352.016 734.551 352.016C731.741 359.506 716.095 358.453 716.095 358.453Z" fill="#A77860"/>
<path d="M611.372 372.393C611.372 372.393 606.901 363.511 606.181 362.181C605.459 360.846 601.932 359.005 597.714 357.269C593.501 355.544 587.12 355.307 586.496 355.818C585.871 356.327 585.027 356.513 584.395 358.608C583.757 360.696 584.251 362.859 584.251 362.859C584.251 362.859 582.376 365.021 583.164 367.633C583.164 367.633 581.481 369.756 582.822 372.562C582.822 372.562 581.229 374.685 582.357 376.63C582.357 376.63 585.883 378.487 587.021 379.597C588.147 380.707 595.737 384.004 603.445 385.927C603.449 385.929 611.273 385.009 611.372 372.393Z" fill="#EEA886"/>
<path d="M611.366 372.393C611.366 372.393 619.892 380.896 619.701 382.929C619.379 386.286 615.237 396.084 615.025 395.887C614.81 395.689 601.675 385.466 601.675 385.466L611.366 372.393Z" fill="#EEA886"/>
<path d="M700.116 403.469C700.116 403.469 700.116 403.497 700.091 403.497C698.673 405.979 692.492 410.948 684.64 416.594C684.19 416.935 683.74 417.243 683.29 417.587C672.415 425.317 658.866 434.103 650.395 439.523C645.793 442.456 639.722 441.443 636.334 437.151L616.741 412.277L596.666 386.813L597.767 385.147L607.087 371.003L608.951 368.208L642.382 410.527C642.382 410.527 664.321 395.787 676.999 382.83C677.959 381.842 679.198 380.994 680.641 380.26C682.254 379.411 684.088 378.733 685.981 378.2C686.575 378.027 687.161 377.892 687.755 377.748C693.324 376.534 699.021 376.678 701.143 378.398C703.512 380.317 704.7 382.858 705.006 385.709C705.71 391.355 703.053 398.13 700.116 403.469Z" fill="#0B4870"/>
<path d="M596.854 369.359L599.161 367.772L580.361 340.457L578.053 342.045L596.854 369.359Z" fill="#EB4747"/>
<path d="M580.405 340.446L576.492 337.208L578.087 342.027L580.405 340.446Z" fill="#EEA886"/>
<path d="M587.616 356.225C587.616 356.225 598.204 360.889 597.746 362.879C597.284 364.864 596.036 365.285 596.036 365.285L599.624 369.404C599.624 369.404 600.612 373.615 596.202 373.568C596.202 373.568 597.501 377.398 593.24 376.794C593.24 376.794 593.085 379.739 591.069 379.849C589.052 379.953 582.353 376.633 582.353 376.633C582.353 376.633 581.22 375.227 582.819 372.565C582.819 372.565 581.398 369.957 583.16 367.636C583.16 367.636 582.319 365.352 584.247 362.862C584.247 362.862 582.723 357.614 586.492 355.821C586.489 355.819 587.164 356.028 587.616 356.225Z" fill="#D69779"/>
<path d="M605.86 361.987C605.86 361.987 598.092 362.826 594.029 365.349C593.117 365.917 592.323 366.656 592.459 367.825C592.592 368.994 594.277 370.261 597.66 370.092C601.037 369.925 605.49 371.433 605.49 371.433C605.49 371.433 608.918 370.121 605.86 361.987Z" fill="#EEA886"/>
<path d="M615.097 585.928C615.097 585.928 620.866 549.956 621.168 548.499C621.476 547.042 627.343 541.8 655.379 532.614C655.379 532.614 624.213 538.672 616.041 543.994C609.741 548.096 615.097 585.928 615.097 585.928Z" fill="#12131F"/>
<path d="M462.206 519.297H455.962V724.21H462.206V519.297Z" fill="#0E538C"/>
<path d="M830.475 519.297H824.227V724.21H830.475V519.297Z" fill="#0E538C"/>
<path d="M841.509 508.381H446.517V694.031H841.509V508.381Z" fill="#CCE9FF"/>
<path d="M855.173 489.551H433.785V509.4H855.173V489.551Z" fill="#0E538C"/>
<path d="M464.577 720.177H453.593V724.21H464.577V720.177Z" fill="#0E538C"/>
<path d="M832.627 720.177H822.083V724.21H832.627V720.177Z" fill="#0E538C"/>
<path d="M588.293 397.744V465.272C588.293 469.93 584.507 473.713 579.852 473.713H479.614C474.955 473.713 471.172 469.93 471.172 465.272V397.744C471.172 393.086 474.955 389.303 479.614 389.303H579.852C584.507 389.303 588.293 393.086 588.293 397.744Z" fill="#F7F7F7"/>
<path d="M547.996 485.034V489.551H498.498L505.475 473.716L517.981 445.313L518.461 444.209H544.946L532.553 473.544L532.466 473.716L527.697 485.034H547.996Z" fill="#F7F7F7"/>
<path d="M543.422 444.209L542.914 445.457L530.942 473.716L524.25 489.551H498.584L505.558 473.716L518.041 445.313L518.521 444.209H543.422Z" fill="#F2F2F2"/>
<path d="M568.194 485.034V489.551H525.954L527.704 485.034H568.194Z" fill="#D3D3D3"/>
<path d="M532.492 473.549L544.947 444.073V473.549H532.492Z" fill="#D3D3D3"/>
<path d="M520.94 457.913C522.321 454.351 525.632 452.191 528.88 452.459C528.617 452.304 528.343 452.17 528.055 452.061C524.303 450.61 519.935 452.866 518.298 457.105C516.651 461.346 518.362 465.962 522.114 467.41C522.71 467.642 523.323 467.768 523.936 467.819C520.773 466.052 519.424 461.829 520.94 457.913Z" fill="white"/>
<path d="M525.975 467.66C528.491 467.098 530.786 465.179 531.876 462.367C533.079 459.256 532.472 455.959 530.589 453.841C530.309 453.528 530.007 453.234 529.673 452.98C529.422 452.789 529.157 452.61 528.883 452.455C525.636 452.184 522.324 454.346 520.943 457.909C519.427 461.825 520.774 466.048 523.939 467.818C524.173 467.835 524.399 467.846 524.628 467.841C525.077 467.833 525.526 467.759 525.975 467.66Z" fill="#D3D3D3"/>
<path d="M943.178 281.877C943.178 281.877 937.855 282.588 937.906 280.332C937.94 278.082 938.305 275.144 938.305 275.144L943.178 281.877Z" fill="#EEA987"/>
<path d="M973.111 257.45L955.631 270.971C957.855 270.552 961.582 270.01 961.675 271.179C961.794 272.839 955.028 274.846 952.889 276.357C950.919 277.746 948.856 280.216 948.305 280.332L944.484 283.606L938.304 275.143C938.304 275.143 948.508 263.597 950.97 261.137C954.969 257.135 971.141 254.78 972.024 255.364C973.62 256.415 973.111 257.45 973.111 257.45Z" fill="#EEA987"/>
<path d="M951.536 284.176L937.435 272.234L889.088 321.088C881.515 326.288 903.851 344.218 910.159 348.133C926.365 358.181 945.483 381.426 965.315 367.249C986.81 351.877 955.518 340.938 945.084 341.206C936.035 341.437 916.339 323.655 916.339 323.655L951.536 284.176Z" fill="#F6AD55"/>
<path d="M926.014 722.53C926.014 722.53 917.983 730.96 909.833 732.726C901.675 734.491 887.608 740.51 887.54 745.349C887.472 750.188 919.375 749.611 928.705 744.738C942.636 737.454 944.054 739.644 945.599 736.011C947.144 732.377 943.74 722.632 943.842 721.477C943.969 720.051 926.014 722.53 926.014 722.53Z" fill="#0B4870"/>
<path d="M926.928 718.488C926.928 718.488 925.858 722.436 926.02 722.529C926.181 722.614 944.399 724.652 943.848 721.485C943.398 718.904 942.761 716.111 942.761 716.111L926.928 718.488Z" fill="#2F6B8C"/>
<path d="M1016.76 724.72C1016.76 724.72 1010.85 732.937 1002.95 734.83C995.154 736.707 983.617 743.999 983.235 748.702C982.862 753.397 1008.1 755.816 1021.28 747.565C1029.94 742.131 1033.16 742.445 1034.91 738.99C1036.65 735.544 1033.99 725.874 1034.17 724.753C1034.38 723.378 1016.76 724.72 1016.76 724.72Z" fill="#0B4870"/>
<path d="M1017 720.661C1017 720.661 1016.62 724.634 1016.76 724.719C1016.91 724.813 1034.27 727.877 1034.17 724.753C1034.09 722.266 1033.06 719.176 1033.06 719.176L1017 720.661Z" fill="#2F6B8C"/>
<path d="M945.293 481.203C945.293 481.203 936.854 542.484 933.408 563.2C929.384 587.416 928.017 607.426 926.888 619.969C925.478 635.733 923.611 716.417 922.618 721.035C921.624 725.636 947.186 723.242 947.186 723.242C947.186 723.242 960.582 618.055 964.793 601.26C968.715 585.629 980.125 518.089 983.699 522.358C987.273 526.626 998.224 603.135 1000.87 615.463C1003.52 627.791 1010.62 724.872 1010.62 724.872C1010.62 724.872 1034.74 728.735 1039.59 724.872C1039.59 724.872 1035.78 638.306 1034.1 615.192C1033.46 606.376 1039.67 509.708 1024.77 470.723C1016.9 450.126 945.293 481.203 945.293 481.203Z" fill="#519AD6"/>
<path d="M972.878 334.242C972.878 334.242 950.56 338.857 947.902 341.206C945.033 343.705 939.956 368.147 939.651 374.962C939.345 381.777 942.342 410.222 945.22 420.814C948.098 431.407 941.45 476.715 939.634 491.391C939.634 491.391 989.322 500.716 1033.52 494.965C1033.52 494.965 1027.49 450.386 1029.26 435.873C1031.53 417.274 1036.97 374.42 1036.97 374.42C1036.97 374.42 1037.02 350.302 1033.59 346.449C1026.27 338.171 998.075 334.242 998.075 334.242H972.878Z" fill="#F6AD55"/>
<path d="M1003.58 378.971C1004.63 401.047 1011.66 406.414 1018.58 404.697C1020.75 404.164 1022.88 402.927 1024.76 401.296C1027.69 398.738 1030 395.198 1030.83 391.832C1033.86 379.538 1033.88 345.627 1018.36 341.265C1018.36 341.269 1001.54 335.825 1003.58 378.971Z" fill="#F6AD55"/>
<path d="M936.809 389.001C936.809 389.001 949.271 386.935 950.027 404.997C950.791 423.059 958.61 456.611 971.352 469.984L921.222 471.887C908.48 458.517 902.223 426.491 901.272 408.438C900.398 391.836 888.045 392.443 888.045 392.443L936.809 389.001Z" fill="#D3D3D3"/>
<path d="M966.05 347.628C966.33 347.82 966.636 348.004 966.967 348.161C968.105 348.74 969.539 349.156 971.348 349.353C972.01 349.43 972.672 349.452 973.334 349.435C973.742 349.43 974.149 349.401 974.565 349.364C986.382 348.212 998.106 334.693 998.106 334.693C974.378 331.099 964.208 335.52 964.208 335.52C964.208 335.52 960.413 343.831 966.05 347.628Z" fill="#F6AD55"/>
<path d="M966.55 339.077C966.55 339.077 972.076 342.727 993.028 333.496C993.028 333.496 990.94 321.052 994.166 307.4C997.282 294.261 968.435 323.604 968.435 323.604C968.766 323.847 968.834 325.187 968.638 327.057C968.587 327.564 968.511 328.104 968.426 328.666C968.273 329.637 968.07 330.673 967.815 331.737C967.755 332.025 967.679 332.31 967.603 332.599C966.423 337.087 966.55 335.162 966.55 339.077Z" fill="#EEA886"/>
<path d="M993.022 329.527C993.022 329.527 982.062 336.133 971.221 337.621L976.985 346.824L995.254 334.242L993.022 329.527Z" fill="#0B4870"/>
<path d="M967.594 332.598C967.594 332.598 968.749 336.387 971.219 337.62L965.803 345.169L965.998 335.161L967.594 332.598Z" fill="#0B4870"/>
<path d="M967.687 328.965C980.116 329.62 988.062 316.742 988.299 316.36C980.498 324.88 968.417 325.385 968.417 325.385C968.264 326.357 967.942 327.901 967.687 328.965Z" fill="#A77860"/>
<path d="M936.803 389.001C936.803 389.001 921.887 390.384 925.045 411.199L880.756 413.593C880.756 413.593 874.644 399.418 888.04 392.443L936.803 389.001Z" fill="#F7F7F7"/>
<path d="M975.192 427.905C975.192 427.905 973.274 428.809 971.61 428.358C968.732 427.575 966.27 423.572 962.509 425.627C958.748 427.685 961.906 441.451 963.816 443.47C965.726 445.487 971.584 444.307 978.919 439.054C986.237 433.806 975.192 427.905 975.192 427.905Z" fill="#EEA886"/>
<path d="M963.872 425.123C963.872 425.123 957.514 425.596 950.501 426.991C944.355 428.216 936.884 430.591 937.173 432.146C937.614 434.501 943.515 431.85 949.695 431.048C955.391 430.308 954.39 431.418 954.39 431.418C954.39 431.418 954.653 431.087 948.608 433.112C942.105 435.288 935.221 437.891 935.433 439.17C935.696 440.748 935.857 440.923 938.345 440.522C936.969 441.062 936.918 441.522 937.088 442.131C937.971 445.248 948.014 443.56 952.004 442.882C948.939 443.422 946.758 444.144 948.532 445.711C950.561 447.498 964.653 444.461 969.815 443.859C975.426 443.207 963.872 425.123 963.872 425.123Z" fill="#EEA886"/>
<path d="M1013.42 341.703C1008.86 343.202 1006.42 349.642 1009.19 363.02C1012.26 377.813 1015.69 385.003 1017.68 388.487C1019.66 391.971 1030.34 409.81 1028.39 412.639C1026.44 415.462 1000.61 422.178 998.849 422.68C995.351 423.674 971.92 428.35 971.92 428.35L977.651 448.413C977.651 448.413 1049 436.24 1052.47 432.77C1055.94 429.298 1057.75 424.595 1053.91 412.463C1050.01 400.141 1042.99 371.28 1041.75 369.025C1040.51 366.769 1033.97 334.947 1013.42 341.703Z" fill="#F6AD55"/>
<path opacity="0.3" d="M1009.82 365.936C1009.82 365.936 1012.16 395.821 1022.51 417.048C1025.65 416.342 1028.75 414.716 1031.46 412.565C1031.46 412.565 1019.5 392.924 1018.43 390.692C1017.36 388.458 1011.04 371.136 1009.82 365.936Z" fill="#A77860"/>
<path opacity="0.3" d="M975.54 444.184C975.54 444.184 1004.26 449.338 1028.99 446.267C1028.62 443.879 1028.95 441.262 1029.72 438.201C1029.72 438.201 1006.53 442.75 1003.94 443.06C1001.33 443.368 981.423 444.375 975.54 444.184Z" fill="#A77860"/>
<path d="M145.752 268.927L145.441 271.749L142.084 303.453C134.178 297.663 127.684 302.691 122.771 310.847C122.629 311.072 122.485 311.298 122.347 311.552C118.027 303.732 112.863 289.592 122.488 277.283C127.234 271.214 134.234 268.588 141.378 268.588C141.801 268.588 142.253 268.588 142.677 268.616C142.875 268.616 143.043 268.645 143.241 268.645C143.549 268.673 143.888 268.701 144.201 268.726C144.455 268.76 144.71 268.786 144.964 268.814C145.108 268.842 145.249 268.842 145.387 268.871C145.498 268.899 145.639 268.899 145.752 268.927Z" fill="#E8734D"/>
<path d="M168.37 319.83C167.41 320.42 163.488 321.207 163.488 321.207C163.488 321.207 159.366 334.31 154.792 334.225C154.026 334.197 152.956 334.109 151.629 333.884C148.495 333.35 143.977 332.08 139.318 329.539L140.504 318.444L141.721 306.925C141.721 306.897 141.749 306.897 141.749 306.897L141.975 304.526L142.088 303.45C134.182 297.66 127.687 302.688 122.775 310.844C121.191 307.149 119.951 303.168 119.327 299.187C117.181 285.916 121.784 272.876 142.622 271.691C143.44 271.634 144.403 271.662 145.446 271.747C152.222 272.227 162.559 275.7 166.907 287.274C167.669 289.253 168.235 291.481 168.573 293.967C168.573 293.967 168.037 299.134 166.794 303.199C165.578 307.264 169.302 319.234 168.37 319.83Z" fill="#A77860"/>
<path d="M168.564 293.97C168.564 293.97 156.874 302.041 145.241 303.764C144.476 303.879 143.771 304.018 143.065 304.215H143.037C142.669 304.303 142.302 304.412 141.963 304.529L142.076 303.453C134.17 297.663 127.676 302.691 122.763 310.847C122.622 311.072 122.478 311.298 122.339 311.552C121.492 310.003 120.589 308.196 119.801 306.194C119.629 305.771 119.462 305.345 119.29 304.893C118.697 303.283 118.189 301.536 117.797 299.726C117.797 299.698 117.797 299.67 117.765 299.645C117.652 299.136 117.571 298.625 117.482 298.09C117.37 297.556 117.286 296.991 117.229 296.395C117.169 295.862 117.116 295.291 117.088 294.758C117.056 294.196 117.028 293.628 117.028 293.064C117.028 287.87 118.468 282.421 122.478 277.283C127.224 271.214 134.224 268.588 141.367 268.588C141.791 268.588 142.243 268.588 142.666 268.616C142.864 268.616 143.033 268.645 143.231 268.645C143.539 268.673 143.878 268.701 144.191 268.726C144.445 268.76 144.7 268.786 144.953 268.814C145.098 268.842 145.239 268.842 145.377 268.871C145.49 268.899 145.631 268.899 145.744 268.927C156.05 270.482 165.707 277.314 168.079 287.051C168.652 289.227 168.818 291.536 168.564 293.97Z" fill="#519AD6"/>
<path d="M112.745 336.796C112.488 338.12 112.152 339.532 111.729 341.002C111.954 340.043 112.293 338.597 112.745 336.796Z" fill="#E8734D"/>
<path d="M233.285 725.874C233.285 725.874 244.068 741.01 242.592 743.421C241.118 745.815 229.773 746.164 222.875 743.421C215.974 740.679 215.813 722.928 212.69 715.304C211.382 712.112 214.172 702.689 218.111 702.002C222.048 701.314 226.32 703.326 226.32 703.326C226.32 703.326 222.236 714.065 233.285 725.874Z" fill="#F6AD55"/>
<path d="M226.392 703.208C226.392 703.208 228.656 709.651 229.487 715.815C230.172 720.917 237.167 731.758 236.839 733.142C236.509 734.508 227.637 735.756 224.017 732.216C220.409 728.676 218.077 718.395 217.283 712.249C216.538 706.519 215.605 703.692 215.605 703.692C215.605 703.692 222.936 699.438 226.392 703.208Z" fill="#A77860"/>
<path d="M139.446 726.129C139.446 726.129 149.84 741.011 148.358 743.422C146.878 745.816 135.545 746.164 128.641 743.422C121.742 740.68 121.57 722.928 118.453 715.305C117.143 712.113 119.943 702.69 123.877 702.002C127.811 701.314 132.419 703.471 132.419 703.471C132.419 703.471 128.395 714.32 139.446 726.129Z" fill="#F6AD55"/>
<path d="M132.417 703.47C132.417 703.47 133.239 710.5 134.552 715.475C135.87 720.441 142.935 731.757 142.607 733.132C142.28 734.508 133.4 735.747 129.792 732.207C126.174 728.667 123.379 718.437 123.054 712.249C122.727 706.043 123.876 702.002 123.876 702.002C123.876 702.002 128.966 699.701 132.417 703.47Z" fill="#A77860"/>
<path d="M227.047 706.366C227.047 706.366 226.513 706.815 225.606 707.265C223.855 708.165 220.665 709.099 217.361 706.705C217.077 706.501 216.543 705.635 215.752 704.218C215.752 704.218 215.752 704.218 215.752 704.184V704.158C215.667 704.048 215.61 703.929 215.526 703.793C208.721 691.288 187.093 642.219 187.093 627.544C187.093 610.797 178.452 590.364 172.975 578.504C170.916 574.072 169.276 570.856 168.711 569.445C168.118 568.005 167.553 566.593 167.017 565.209C149.398 520.803 152.955 506.967 150.471 503.946C147.932 500.841 147.706 505.866 146.207 512.757C145.219 517.409 143.412 546.38 141.746 566.788C141.492 570.206 141.209 573.394 140.955 576.161C140.476 581.245 140.023 585 139.628 586.549C137.708 594.121 139.205 619.582 138.16 632.457C137.084 645.301 132.428 703.479 132.428 703.479C132.428 703.479 128.814 709.379 123.731 703.623C123.703 703.573 123.647 703.454 123.59 703.224C123.505 702.97 123.449 702.613 123.336 702.129C121.473 692.332 114.978 637.593 114.781 623.534C114.555 608.234 114.329 587.143 113.933 580.539C113.708 577.011 113.482 573.654 113.228 570.432C113.084 568.713 112.943 567.013 112.804 565.377C108.512 515.354 101.623 504.262 115.543 463.237C115.602 463.065 115.656 462.873 115.741 462.704C118.226 455.42 120.823 449.375 123.477 444.382C123.534 444.272 123.59 444.156 123.647 444.046C123.675 444.012 123.647 444.012 123.647 444.012C129.209 433.651 135.025 428.005 140.729 425.605C142.452 424.9 144.177 424.476 145.868 424.282C146.913 424.194 147.957 424.165 149.002 424.248C149.115 424.248 149.256 424.248 149.369 424.282C151.628 424.473 153.831 425.097 155.948 426.029C155.948 426.029 155.976 426.029 155.976 426.057C156.852 426.399 157.699 426.85 158.546 427.296L158.602 427.33C161.765 429.106 164.786 431.505 167.525 434.162C167.835 434.444 168.09 434.696 168.372 435.006L168.403 435.034C169.617 436.22 170.747 437.465 171.848 438.708C172.892 439.921 173.906 441.16 174.841 442.38C175.691 443.45 176.425 444.438 177.185 445.458V445.486C180.347 449.918 182.606 453.81 183.71 455.702C183.792 455.846 183.88 455.984 183.936 456.125C184.105 456.496 184.244 456.715 184.303 456.86C184.331 456.888 184.359 456.916 184.359 456.941C184.359 456.975 184.387 457.001 184.387 457.029C184.447 457.365 184.757 458.892 185.238 461.207C187.609 472.666 194.016 503.972 195.741 513.146C196.899 519.272 199.158 538.137 201.106 555.609C202.007 563.736 202.825 571.533 203.447 577.659C203.958 582.71 204.325 586.609 204.463 588.528C205.084 597.842 214.092 632.907 213.668 636.234C213.301 639.146 223.663 689.93 226.406 703.199C226.406 703.224 226.406 703.258 226.434 703.284C226.462 703.369 226.462 703.428 226.49 703.479C226.849 705.321 227.047 706.366 227.047 706.366Z" fill="#A77860"/>
<path d="M203.214 554.482C202.537 554.88 201.831 555.244 201.097 555.611C191.242 560.749 179.155 563.657 167.016 565.209C158.373 566.333 149.677 566.759 141.745 566.787C129.462 566.847 118.902 566 112.804 565.377C109.246 565.012 107.216 564.73 107.216 564.73C100.298 514.73 107.41 480.909 114.049 462.167C118.253 450.225 122.234 444.378 122.234 444.378C122.234 444.378 122.686 444.378 123.476 444.378H123.646C126.981 444.378 135.731 444.495 145.614 445.228C154.564 445.906 164.446 447.12 172.042 449.291C173.988 449.852 175.795 450.476 177.379 451.154C180.287 452.421 182.49 453.921 183.704 455.697C183.785 455.84 183.873 455.978 183.93 456.12C184.099 456.374 184.212 456.6 184.296 456.854C184.324 456.883 184.353 456.911 184.353 456.936C184.353 456.97 184.381 456.995 184.381 457.023C184.751 457.983 185.146 459.338 185.623 460.975C191.355 482.157 203.214 554.482 203.214 554.482Z" fill="#519AD6"/>
<path d="M212.395 713.972V729.822H214.372V717.572L212.395 713.972Z" fill="#F6AD55"/>
<path d="M118.159 713.972V729.822H120.132V717.572L118.159 713.972Z" fill="#F6AD55"/>
<path d="M142.08 303.453L141.967 304.529L141.741 306.9C141.741 306.9 141.713 306.9 141.713 306.928L140.496 318.446L139.31 329.541L138.155 340.636C138.155 340.636 137.305 341.313 135.924 342.355C135.893 342.383 135.893 342.414 135.865 342.414C135.667 342.581 135.445 342.751 135.218 342.923C134.908 343.149 134.594 343.403 134.255 343.656C133.214 344.444 131.997 345.322 130.67 346.308C130.642 346.336 130.641 346.336 130.61 346.336C130.554 346.364 130.469 346.423 130.388 346.48C127.787 348.343 124.797 350.406 121.857 352.182C115.363 356.163 109.151 358.875 107.993 355.654C107.912 355.457 107.881 355.256 107.852 355.058V355.031C107.683 353.845 107.993 352.125 108.898 349.754C109.97 346.903 110.817 344.362 111.494 341.991C111.494 341.935 111.523 341.847 111.523 341.793C111.607 341.511 111.664 341.26 111.721 341.006C112.144 339.535 112.483 338.123 112.737 336.799C114.796 326.41 113.443 318.559 114.403 300.915C114.516 298.688 114.686 296.316 114.883 293.747C116.715 270.937 133.35 268.421 141.368 268.594C134.225 268.594 127.222 271.219 122.479 277.289C116.69 284.682 116.238 292.787 117.794 299.729C118.783 304.333 120.618 308.452 122.337 311.555C122.479 311.301 122.622 311.075 122.761 310.849C127.68 302.691 134.174 297.662 142.08 303.453Z" fill="#519AD6"/>
<path d="M156.93 350.062C156.93 350.062 156.338 350.206 155.378 350.432C153.372 350.884 149.646 351.646 145.862 352.179C145.297 352.261 144.733 352.351 144.167 352.406C144.054 352.434 143.914 352.434 143.801 352.462C142.584 352.606 141.373 352.716 140.24 352.75C138.687 352.832 137.247 352.806 136.118 352.634C133.774 352.264 132.56 351.305 133.633 349.303C133.859 348.905 134.031 348.453 134.197 347.973C134.508 347.186 134.734 346.253 134.904 345.237V345.203C134.904 345.175 134.904 345.175 134.904 345.147C135.045 344.442 135.129 343.679 135.214 342.92C135.44 342.747 135.663 342.578 135.86 342.412C135.889 342.412 135.889 342.378 135.92 342.353C137.301 341.311 138.151 340.633 138.151 340.633L139.305 329.539L140.491 318.444C146.139 317.541 153.003 317.424 151.277 322.453C150.317 325.332 150.685 329.51 151.588 333.745C151.588 333.801 151.616 333.827 151.616 333.884C151.871 335.041 152.153 336.198 152.463 337.356C152.774 338.541 153.141 339.671 153.48 340.774L154.637 344.244L154.666 344.359C155.917 347.744 156.93 350.062 156.93 350.062Z" fill="#A77860"/>
<path d="M94.6744 421.41C95.0131 424.168 107.9 423.592 121.65 422.186C121.665 422.243 121.679 422.29 121.696 422.347C121.989 423.561 122.246 424.639 122.433 425.402C122.633 426.234 122.823 427.115 122.983 428.038C124.364 435.906 124.254 446.984 121.628 456.478C121.628 456.478 156.291 469.396 177.908 457.624C177.908 457.624 175.612 438.828 179.06 426.68C182.516 414.527 200.547 372.197 200.547 372.197C200.547 372.197 187.474 353.303 177.498 349.844C167.522 346.386 154.661 344.249 154.661 344.249L135.966 344.938C135.966 344.938 120.402 348.992 116.916 350.087C110.69 352.055 108.281 354.124 105.056 360.552C100.624 369.392 93.1522 408.988 94.6744 421.41ZM114.332 400.589C114.332 400.589 116.035 404.355 117.562 408.618C116.316 408.734 115.136 408.739 114.578 408.822C109.653 409.561 113.355 403.303 114.332 400.589Z" fill="#F6AD55"/>
<path d="M152.472 337.358C140.983 335.749 139.37 329.71 139.314 329.538C151.599 333.745 151.599 333.745 151.599 333.745C151.599 333.801 151.628 333.826 151.628 333.883C151.879 335.04 152.165 336.201 152.472 337.358Z" fill="#A77860"/>
<path d="M114.573 400.739C114.573 400.739 115.417 402.515 117.727 409.496C120.07 389.879 118.845 379.662 118.845 379.662C118.587 390.147 114.573 400.739 114.573 400.739Z" fill="#CFBEB8"/>
<path d="M121.692 422.347C121.986 423.561 122.243 424.639 122.429 425.402C122.629 426.234 122.818 427.115 122.98 428.038C130.722 423.832 136.287 420.541 136.287 420.541C134.204 421.003 121.692 422.347 121.692 422.347Z" fill="#CFBEB8"/>
<path d="M134.909 345.209L156.924 363.15L154.654 344.249C154.657 344.249 141.821 341.483 134.909 345.209Z" fill="#A77860"/>
<path d="M150.563 360.106L156.925 363.149L135.307 341.726L150.563 360.106Z" fill="#FCD2B1"/>
<path d="M152.472 397.546C152.331 400.767 152.021 404.432 151.571 408.358C151.201 411.58 150.752 414.992 150.241 418.493C150.185 418.801 150.16 419.117 150.1 419.425C149.846 421.034 149.621 422.646 149.366 424.283C149.338 424.311 149.338 424.339 149.338 424.365C149.253 424.816 149.166 425.297 149.112 425.777C149.027 426.2 148.968 426.654 148.886 427.106C148.827 427.499 148.745 427.922 148.688 428.32C147.7 434.133 146.63 439.894 145.611 445.231C144.368 451.523 143.211 457.229 142.251 461.573C142.056 462.561 141.855 463.465 141.689 464.314C140.983 467.59 137.623 469.537 134.432 468.549L115.74 462.706L114.046 462.172L112.21 461.604C112.21 461.604 122.516 435.634 120.681 422.451C120.71 422.394 120.681 422.335 120.681 422.307C120.597 421.774 120.512 421.293 120.399 420.814C119.354 416.522 118.197 412.483 117.152 408.988C117.124 408.872 117.067 408.762 117.039 408.646C117.039 408.59 117.011 408.536 116.982 408.474C116.613 407.288 116.245 406.219 115.938 405.171L115.427 403.621C115.119 402.743 114.834 401.955 114.608 401.25C114.58 401.134 114.552 401.052 114.495 400.962C114.495 400.962 114.467 400.933 114.495 400.933C113.76 398.788 113.281 397.548 113.281 397.548C113.281 397.548 107.719 366.893 121.864 352.182C124.154 349.811 126.978 347.837 130.395 346.479C130.648 346.397 130.903 346.282 131.157 346.197C131.242 346.169 131.27 346.169 131.27 346.169C131.891 345.943 132.541 345.745 133.218 345.573C133.78 345.4 134.319 345.265 134.913 345.149C134.969 345.149 135.026 345.121 135.082 345.121C135.367 345.065 135.618 345.011 135.901 344.983C135.931 344.949 135.931 344.949 135.959 344.949C135.959 344.949 136.44 345.714 137.23 347.1C137.965 348.424 139.038 350.341 140.249 352.746C141.858 355.962 143.778 359.996 145.588 364.547C149.482 374.312 152.983 386.398 152.472 397.546Z" fill="#0B4870"/>
<path d="M204.319 375.778L192.601 391.248L189.918 394.777L183.963 402.656C183.963 405.618 184.02 408.893 184.132 412.365V412.393C184.164 413.407 184.217 414.401 184.245 415.414C184.386 418.971 184.584 422.644 184.782 426.308C184.923 428.57 185.065 430.825 185.203 433.03C185.233 433.256 185.233 433.482 185.262 433.707V434.016C185.459 436.838 185.657 439.551 185.855 442.114C185.855 442.312 185.855 442.513 185.883 442.71C186.617 452.673 187.295 460.019 187.295 460.019L185.629 460.979L185.233 461.205L177.977 465.38C175.464 466.819 172.33 465.044 172.271 462.164C172.271 461.515 172.242 460.809 172.242 460.075C172.186 457.054 172.129 453.354 172.048 449.291C171.988 447.092 171.963 444.749 171.903 442.344C171.903 441.158 171.875 439.944 171.847 438.704C171.818 437.882 171.818 437.039 171.788 436.189V436.107L171.706 431.531C171.675 430.859 171.675 430.178 171.647 429.53C171.618 427.356 171.59 425.213 171.534 423.062C171.505 420.978 171.452 418.915 171.42 416.908C171.364 414.256 171.307 411.685 171.279 409.26C171.195 405.417 171.11 401.92 171.054 398.981C170.828 387.606 166.226 372.334 162.163 360.926C158.828 351.669 155.891 344.947 155.891 344.947C156.004 344.981 156.088 345.006 156.201 345.063C156.427 345.119 156.654 345.201 156.88 345.288L156.625 344.611L156.482 344.241C156.482 344.241 156.933 344.3 157.724 344.439C161.648 345.116 173.847 347.35 180.623 350.734C182.514 351.666 184.799 353.529 187.199 355.847C190.985 359.433 195.023 364.119 198.27 368.043C201.774 372.364 204.319 375.778 204.319 375.778Z" fill="#0B4870"/>
<path d="M185.873 442.115C185.873 442.115 170.524 442.711 168.135 442.115C165.752 441.519 149.824 434.611 148.864 427.79C147.91 420.97 185.873 433.899 185.873 433.899V442.115Z" fill="#A77860"/>
<path d="M138.247 420.797L200.543 413.508L172.403 436.403L138.247 420.797Z" fill="#D3D3D3"/>
<path d="M172.403 436.403L138.247 424.764V420.797L173.553 432.124L172.403 436.403Z" fill="#F2F2F2"/>
<path d="M156.339 409.364C156.339 409.364 161.49 409.364 164.378 408.78C166.612 408.322 172.16 408.952 173.581 410.203C174.989 411.453 179.49 420.182 180.343 420.719C181.19 421.249 179.908 422.489 178.411 421.865C178.411 421.865 177.042 425.682 173.654 424.259C170.268 422.825 167.967 419.7 166.197 419.151C164.427 418.601 154.106 415.826 154.106 415.826C154.106 415.826 153.68 408.433 156.339 409.364Z" fill="#A77860"/>
<path d="M171.047 363.16L165.347 359.545L156.198 345.065L155.803 344.444L153.488 340.776L157.723 344.444L158.002 344.867L171.047 363.16Z" fill="#F6AD55"/>
<path d="M165.337 359.539L156.923 363.15L154.655 344.249L153.478 340.766L165.337 359.539Z" fill="#FCD2B1"/>
<path d="M229.438 421.824C229.438 421.824 229.469 423.519 229.017 425.921C228.622 428.177 227.746 431.087 225.996 433.713C222.89 438.365 193.666 441.869 185.873 442.716C184.659 442.859 183.981 442.913 183.981 442.913C184.065 442.74 184.094 442.49 184.153 442.179C184.408 440.259 184.182 436.081 184.04 434.243C184.009 433.681 183.981 433.34 183.981 433.34L184.094 433.312L185.195 433.029L229.438 421.824Z" fill="#0B4870"/>
<path d="M259.621 361.58L243.526 414.456L240.703 423.742L229.015 425.921L185.869 433.911L185.25 434.02L184.036 434.246L177.511 435.432L172.403 436.392L173.561 432.129L174.068 430.209L175.593 424.51L177.711 416.631L177.85 416.15L187.339 380.862L190.556 368.864L197.53 368.13L198.267 368.048L259.621 361.58Z" fill="#F2F2F2"/>
<path d="M135.307 341.726L150.563 360.106L142.21 367.545L133.206 345.545L135.307 341.726Z" fill="#F6AD55"/>
<path d="M156.483 408.642L156.342 409.376L155.071 416.069L154.732 417.788C154.732 417.788 153.012 418.071 150.242 418.494C146.826 419.028 141.771 419.762 136.297 420.529C136.266 420.529 136.266 420.529 136.237 420.557C135.983 420.586 135.704 420.614 135.45 420.668C132.256 421.091 128.952 421.517 125.762 421.913C125.057 421.969 124.378 422.051 123.703 422.133C123.418 422.167 123.139 422.192 122.885 422.22C122.487 422.248 122.095 422.303 121.699 422.359C121.36 422.393 121.022 422.418 120.683 422.446C118.509 422.672 116.447 422.87 114.583 422.98C114.583 422.98 107.637 423.801 101.906 423.801C98.207 423.801 95.0193 423.46 94.4793 422.356C93.0676 419.567 94.931 401.634 97.9812 385.489C101.031 369.338 104.164 360.053 107.864 355.054V355.026C108.767 353.812 110.602 352.682 112.889 351.64C113.197 351.497 113.482 351.386 113.79 351.242C114.44 350.96 115.12 350.681 115.795 350.455C121.614 348.25 128.614 346.7 130.678 346.302C130.904 346.245 131.073 346.192 131.158 346.192C131.243 346.164 131.271 346.164 131.271 346.164L119.158 385.768V385.797L116.673 393.868L116.614 394.122L114.668 400.446L114.583 400.734C114.583 400.734 114.555 400.816 114.499 400.926C114.47 400.926 114.499 400.954 114.499 400.954C114.019 401.948 112.212 405.894 112.299 407.704C112.356 408.354 112.807 408.636 113.401 408.752C113.824 408.718 114.727 408.636 115.998 408.554L116.902 408.467H116.987C117.127 408.438 117.24 408.438 117.381 408.438C117.438 408.438 117.466 408.438 117.523 408.41H117.862C122.012 408.102 128.168 407.732 133.251 407.704C136.808 407.704 141.411 407.848 145.589 408.046C147.789 408.128 149.852 408.237 151.575 408.354C154.509 408.503 156.483 408.642 156.483 408.642Z" fill="#0B4870"/>
<path d="M954.98 281.047C954.98 281.047 949.004 292.124 951.966 293.844C954.411 295.272 949.097 306.15 948.409 307.925C947.705 309.695 952.841 310.991 953.927 312.131C955.014 313.278 958.249 327.345 962.476 327.769C966.696 328.192 985.729 321.572 990.916 316.183C996.103 310.793 1000.36 286.459 996.892 276.186C993.437 265.92 965.533 261.686 954.98 281.047Z" fill="#EEA987"/>
<path d="M953.789 283.443C953.789 283.443 941.641 271.151 952.117 265.297C981.999 248.577 990.285 269.305 992.594 269.895C994.895 270.49 1007.96 271.389 1001.36 294.331C995.701 314.037 990.913 316.182 990.913 316.182C990.913 316.182 990.676 303.451 988.282 301.703C984.538 298.989 976.337 299.645 976.337 299.645C976.337 299.645 980.242 289.267 974.13 287.79C968.026 286.328 959.969 281.151 953.789 283.443Z" fill="#0B4870"/>
<path d="M981.658 296.793C982.201 295.365 983.95 289.255 989.188 292.846C994.443 296.441 985.928 307.969 985.011 308.119C984.094 308.269 977.124 308.78 981.658 296.793Z" fill="#EEA987"/>
<path d="M739.244 349.184C734.049 354.577 715.016 361.216 710.788 360.79C706.577 360.367 703.326 346.277 702.231 345.148C701.152 343.99 696.016 342.694 696.721 340.941C697.4 339.165 702.74 328.265 700.278 326.854C698.19 325.64 700.541 319.796 702.112 316.44C702.765 315 703.3 314.04 703.3 314.04C713.861 294.702 741.757 298.936 745.204 309.181C748.676 319.46 744.415 343.793 739.244 349.184Z" fill="#EEA987"/>
<path d="M749.677 327.339C744.006 347.041 739.235 349.184 739.235 349.184C739.235 349.184 739.04 339.049 737.291 335.636C737.062 335.212 736.833 334.902 736.578 334.704C734.659 333.321 731.586 332.813 729.014 332.669C726.586 332.497 724.642 332.64 724.642 332.64C724.642 332.64 728.564 322.28 722.435 320.814C716.339 319.347 708.291 314.149 702.102 316.436C702.102 316.436 689.937 304.156 700.413 298.311C730.313 281.599 738.59 302.32 740.899 302.916C743.217 303.509 756.256 304.384 749.677 327.339Z" fill="#0B4870"/>
<path d="M729.959 329.803C730.503 328.375 732.252 322.26 737.498 325.856C742.745 329.451 734.23 340.98 733.313 341.13C732.396 341.279 725.426 341.784 729.959 329.803Z" fill="#EEA987"/>
</svg>
