<svg width="1440" height="900" viewBox="0 0 1440 900" fill="none" xmlns="http://www.w3.org/2000/svg">
<g clip-path="url(#clip0)">
<path d="M596.632 222.767C591.748 185.306 563.498 107.753 489.567 97.2283C417.522 86.9726 387.906 29.7202 381.459 0.255189H1440V841.441C1406.94 857.603 1328.58 881.583 1279.59 848.206C1218.36 806.485 1178.16 777.168 1071.85 820.768C986.798 855.649 940.24 840.063 927.593 827.91C910.062 807.989 856.592 768.147 782.962 768.147C685.664 777.168 671.765 757.999 649.225 733.568C587.616 663.807 623.554 550.146 649.225 502.035C691.299 460.063 773.795 365.446 767.184 322.747C758.919 269.374 705.95 262.609 657.865 261.857C619.397 261.256 601.015 235.547 596.632 222.767Z" fill="#3490DC"/>
</g>
<defs>
<clipPath id="clip0">
<rect width="1440" height="900" fill="white"/>
</clipPath>
</defs>
</svg>
