<svg id="Capa_1" enable-background="new 0 0 512.004 512.004" height="512" viewBox="0 0 512.004 512.004" width="512" xmlns="http://www.w3.org/2000/svg"><g><g><path d="m440.493 120.443c-6.961 0-366.963 0-368.981 0-19.219 0-34.855 15.636-34.855 34.856v261.447c0 16.999 12.597 32.73 29.36 35.416h379.972c16.763-2.686 29.36-18.417 29.36-35.416 0-8.699 0-253.578 0-261.447-.001-19.22-15.637-34.856-34.856-34.856z" fill="#695d67"/><path d="m77.406 416.745v-261.447c0-19.219 15.636-34.856 34.855-34.856-24.661 0-40.333 0-40.75 0-19.219 0-34.855 15.636-34.855 34.856v261.447c0 16.999 12.597 32.73 29.36 35.416h40.75c-16.763-2.686-29.36-18.418-29.36-35.416z" fill="#544e55"/><path d="m498.683 451.161h-485.363c-3.214 0-5.819 2.631-5.819 5.876v20.213c0 14.998 12.152 27.269 27.005 27.269h442.992c14.853 0 27.005-12.271 27.005-27.269v-20.213c0-3.245-2.606-5.876-5.82-5.876z" fill="#dfebfa"/><path d="m498.683 451.161h-485.363c-3.214 0-5.819 2.631-5.819 5.876v20.213c0 14.998 12.152 27.269 27.005 27.269h442.992c14.853 0 27.005-12.271 27.005-27.269v-20.213c0-3.245-2.606-5.876-5.82-5.876z" fill="#dfebfa"/><path d="m91.47 477.251v-20.213c0-3.245 2.605-5.876 5.819-5.876h-83.969c-3.214 0-5.819 2.631-5.819 5.876v20.213c0 14.998 12.152 27.269 27.005 27.269h83.969c-14.853 0-27.005-12.272-27.005-27.269z" fill="#b1dbfc"/><path d="m183.509 451.161v13.561c0 6.665 5.4 12.118 12.001 12.118h120.984c6.601 0 12.001-5.453 12.001-12.118v-13.561" fill="#b1dbfc"/><path d="m249.009 464.722v-13.561h-65.5v13.561c0 6.665 5.4 12.118 12.001 12.118h65.5c-6.601 0-12.001-5.453-12.001-12.118z" fill="#8bcaff"/><path d="m437.782 151.521c-13.851 0-348.884 0-363.561 0-3.454 0-6.253 2.8-6.253 6.254v256.102c0 3.454 2.8 6.254 6.253 6.254h363.561c3.453 0 6.253-2.8 6.253-6.254 0-5.653 0-202.416 0-225.268 0-1.023 0-1.707 0-2v-28.834c0-3.454-2.8-6.254-6.253-6.254z" fill="#ffe181"/><path d="m108.718 413.877c0-8.058 0-239.846 0-256.102 0-3.454 2.8-6.254 6.253-6.254-22.675 0-37.872 0-40.75 0-3.454 0-6.253 2.8-6.253 6.254v256.102c0 3.454 2.8 6.254 6.253 6.254h40.75c-3.453 0-6.253-2.8-6.253-6.254z" fill="#fec458"/><path d="m379.365 7.516h-201.633l-58.221 58.221v300.495c0 7.124 5.775 12.899 12.899 12.899h247.183c7.124 0 12.899-5.775 12.899-12.899v-345.589c0-7.25-5.877-13.127-13.127-13.127z" fill="#dfebfa"/><path d="m144.011 365.214v-323.977l-24.5 24.5v300.495c0 7.124 5.775 12.899 12.899 12.899h21.182c-5.599-2.149-9.581-7.561-9.581-13.917z" fill="#b1dbfc"/><path d="m119.511 65.737h45.094c7.25 0 13.127-5.877 13.127-13.127v-45.094z" fill="#b1dbfc"/><path d="m177.732 7.516-58.221 58.221h24.258l33.963-33.964z" fill="#8bcaff"/></g><g><path d="m206.708 88.558c-2.93-2.929-7.678-2.929-10.607 0l-18.267 18.267-10.37-10.371c-2.929-2.929-7.678-2.929-10.606 0-2.93 2.929-2.93 7.677-.001 10.606l15.674 15.674c2.928 2.927 7.677 2.929 10.607 0l23.57-23.57c2.929-2.928 2.929-7.677 0-10.606z"/><path d="m206.708 156.205c-2.93-2.929-7.678-2.929-10.607 0l-18.267 18.267-10.37-10.371c-2.929-2.929-7.678-2.93-10.606 0-2.93 2.929-2.93 7.677-.001 10.606l15.674 15.674c2.928 2.927 7.677 2.929 10.607 0l23.57-23.57c2.929-2.929 2.929-7.678 0-10.606z"/><path d="m206.708 225.226c-2.93-2.929-7.678-2.929-10.607 0l-18.267 18.267-10.37-10.371c-2.929-2.929-7.678-2.929-10.606 0-2.93 2.929-2.93 7.677-.001 10.606l15.674 15.674c2.928 2.927 7.677 2.929 10.607 0l23.57-23.57c2.929-2.928 2.929-7.677 0-10.606z"/><path d="m34.506 512.004h442.992c19.026 0 34.505-15.597 34.505-34.769v-20.213c0-7.376-5.975-13.376-13.319-13.376h-25.644c6.131-7.405 9.809-16.846 9.809-26.916v-107.84c0-4.142-3.357-7.5-7.5-7.5s-7.5 3.358-7.5 7.5v107.839c0 13.105-9.632 24.578-22.494 26.916h-378.706c-12.862-2.338-22.493-13.81-22.493-26.916v-261.446c0-15.084 12.271-27.355 27.355-27.355h40.5v16.078h-37.79c-7.583 0-13.753 6.17-13.753 13.754v256.102c0 7.584 6.17 13.754 13.753 13.754h363.561c7.583 0 13.753-6.17 13.753-13.754v-256.103c0-7.584-6.17-13.754-13.753-13.754h-37.789v-16.078h40.5c15.084 0 27.355 12.271 27.355 27.355v118.608c0 4.142 3.357 7.5 7.5 7.5s7.5-3.358 7.5-7.5v-118.607c0-23.355-19.001-42.355-42.355-42.355h-40.5v-92.3c0-11.375-9.254-20.628-20.628-20.628h-105.863c-4.143 0-7.5 3.358-7.5 7.5s3.357 7.5 7.5 7.5h105.863c3.104 0 5.628 2.524 5.628 5.627v345.589c0 2.977-2.422 5.399-5.399 5.399h-247.183c-2.978 0-5.399-2.422-5.399-5.399 0-10.891 0-281.388 0-292.995h37.594c11.374 0 20.627-9.253 20.627-20.627v-37.594h53.27c4.143 0 7.5-3.358 7.5-7.5s-3.357-7.5-7.5-7.5h-60.77c-2.044 0-3.956.85-5.304 2.197l-58.221 58.221c-1.337 1.337-2.196 3.27-2.196 5.303v47.206h-40.5c-23.354 0-42.355 19-42.355 42.355v261.447c0 10.07 3.677 19.511 9.809 26.916h-25.646c-7.345 0-13.319 6-13.319 13.376v20.213c0 19.173 15.478 34.77 34.505 34.77zm135.726-486.397v26.987c0 3.103-2.524 5.627-5.627 5.627h-26.987zm-37.821 361.009h247.183c11.246 0 20.399-9.149 20.399-20.399v-207.212h36.542v253.61h-361.066v-253.61h36.543v207.211c0 11.248 9.15 20.4 20.399 20.4zm58.598 72.03h129.986v6.061c0 2.503-2.062 4.618-4.501 4.618h-120.984c-2.439 0-4.501-2.115-4.501-4.618zm-176.008 0h161.008v6.061c0 10.817 8.748 19.618 19.501 19.618h120.984c10.753 0 19.501-8.801 19.501-19.618v-6.061h161.008v18.589c0 10.901-8.75 19.769-19.505 19.769h-442.992c-10.755 0-19.505-8.868-19.505-19.769z"/><path d="m354.58 84.986h-122.2c-4.143 0-7.5 3.358-7.5 7.5s3.357 7.5 7.5 7.5h122.2c4.143 0 7.5-3.358 7.5-7.5s-3.357-7.5-7.5-7.5z"/><path d="m354.58 114.586h-122.2c-4.143 0-7.5 3.358-7.5 7.5s3.357 7.5 7.5 7.5h122.2c4.143 0 7.5-3.358 7.5-7.5s-3.357-7.5-7.5-7.5z"/><path d="m354.58 154.008h-122.2c-4.143 0-7.5 3.358-7.5 7.5s3.357 7.5 7.5 7.5h122.2c4.143 0 7.5-3.358 7.5-7.5s-3.357-7.5-7.5-7.5z"/><path d="m354.58 183.608h-122.2c-4.143 0-7.5 3.358-7.5 7.5s3.357 7.5 7.5 7.5h122.2c4.143 0 7.5-3.358 7.5-7.5s-3.357-7.5-7.5-7.5z"/><path d="m354.58 223.029h-122.2c-4.143 0-7.5 3.358-7.5 7.5s3.357 7.5 7.5 7.5h122.2c4.143 0 7.5-3.358 7.5-7.5s-3.357-7.5-7.5-7.5z"/><path d="m354.58 252.629h-122.2c-4.143 0-7.5 3.358-7.5 7.5s3.357 7.5 7.5 7.5h122.2c4.143 0 7.5-3.358 7.5-7.5s-3.357-7.5-7.5-7.5z"/><path d="m196.101 294.247-18.267 18.267-10.37-10.371c-2.93-2.929-7.678-2.929-10.607 0s-2.929 7.678 0 10.606l15.674 15.674c2.93 2.929 7.678 2.929 10.607 0l23.57-23.57c2.929-2.929 2.929-7.678 0-10.606-2.93-2.929-7.678-2.929-10.607 0z"/><path d="m354.58 292.05h-122.2c-4.143 0-7.5 3.358-7.5 7.5s3.357 7.5 7.5 7.5h122.2c4.143 0 7.5-3.358 7.5-7.5s-3.357-7.5-7.5-7.5z"/><path d="m354.58 321.65h-122.2c-4.143 0-7.5 3.358-7.5 7.5s3.357 7.5 7.5 7.5h122.2c4.143 0 7.5-3.358 7.5-7.5s-3.357-7.5-7.5-7.5z"/></g></g></svg>